<svg width="1233" height="358" viewBox="0 0 1233 358" fill="none" xmlns="http://www.w3.org/2000/svg">
<path d="M143.42 294.608V135.103" stroke="#0047BA" stroke-width="4" stroke-miterlimit="10"/>
<path d="M28.2919 97.4648L142.078 136.276V294.608L28.2919 245.334V97.4648Z" fill="white"/>
<path d="M258.542 97.4648L144.776 136.276V294.608L258.542 245.334V97.4648Z" fill="white"/>
<path d="M143.433 57.1273L258.542 97.4648L143.427 136.727L28.2919 97.4648L143.433 57.1273Z" fill="#0047BA"/>
<path d="M49.8529 109.71C50.0635 109.814 50.524 110.598 50.7477 110.931C50.8925 111.035 51.0438 111.056 51.2083 111.098V111.306C51.6162 111.819 54.577 112.548 54.577 113.422C54.6428 113.443 54.7152 113.443 54.8139 113.485C54.8994 113.547 54.9652 113.547 55.031 113.568C55.11 113.422 55.2021 113.249 55.2745 113.054C55.485 113.165 55.9456 113.027 56.1495 113.103C56.2745 112.916 56.3272 112.756 56.393 112.576C57.2944 112.888 58.4063 112.964 59.1366 113.186C59.1893 113.124 59.2616 113.047 59.3472 112.957V112.68C59.413 112.652 59.5117 112.576 59.5906 112.465C60.4657 112.805 61.4197 113.096 62.3211 113.415C62.3211 113.124 62.7685 112.708 62.7685 112.395C63.4528 112.645 66.203 114.13 66.6899 114.005V113.741C66.8083 113.776 66.9597 113.845 67.1439 113.873C67.1439 113.318 67.3347 113.97 67.3347 113.381C67.5913 113.436 67.8084 113.54 68.0387 113.651C68.1111 113.741 68.19 113.873 68.3019 114.005C68.4598 114.13 68.7032 114.282 68.8611 114.442C69.5257 114.581 70.1573 114.726 70.7692 114.872C70.8942 114.796 70.9403 114.726 71.0258 114.615C71.8548 114.907 72.7562 115.226 73.5786 115.51C73.6642 115.628 73.7431 115.753 73.8418 115.885V116.468C73.8945 116.468 73.9734 116.489 74.0392 116.544C74.5393 117.592 73.3352 120.11 72.8812 119.972V121.47C72.9733 121.567 73.0326 121.678 73.1312 121.782C73.2036 121.935 73.276 122.067 73.3352 122.192C73.6642 122.296 73.9734 122.414 74.2827 122.546C74.5393 122.899 75.4538 123.794 75.4538 124.107C76.8618 124.558 79.1712 125.987 80.8227 126.542C80.9016 126.674 80.9872 126.771 81.0596 126.93V127.18C81.1253 127.236 81.224 127.27 81.2898 127.291C81.3556 127.402 81.428 127.548 81.5267 127.659C81.5267 127.978 81.803 128.658 81.803 129.262C81.8491 129.393 81.928 129.511 81.9938 129.574C82.0794 129.754 82.1386 129.858 82.2702 129.955C82.6978 130.101 83.4019 130.642 83.9019 130.83V130.531V130.254C84.2046 130.351 84.527 130.476 84.823 130.573V130.85C85.152 131.072 85.4415 131.267 85.7902 131.496C85.8494 131.586 85.9284 131.738 86.0139 131.842V132.148C86.0666 132.287 86.1784 132.377 86.2639 132.543C86.3758 132.578 86.56 132.647 86.685 132.675V132.98C87.1785 133.438 88.1194 133.188 88.3628 133.272C88.4549 133.188 88.5141 133.105 88.5799 133.036C88.5799 132.765 88.8365 132.252 89.0866 132.328V130.254C89.3234 130.351 90.6985 130.254 90.9486 130.323V130.032C91.4223 130.184 91.9092 130.351 92.4026 130.524C92.5408 130.76 92.7119 131.003 92.8698 131.267C92.9553 131.315 93.0277 131.315 93.0803 131.35C93.1593 131.385 93.258 131.426 93.3303 131.426C93.3303 132.051 93.6067 131.551 93.6067 132.12C93.6462 132.155 93.7185 132.155 93.8501 132.196C93.8962 132.217 93.962 132.259 94.0409 132.293C94.2186 132.55 94.3436 132.8 94.5278 133.043C95.3239 133.334 96.1003 133.612 96.903 133.861C96.903 134.743 102.2 137.49 103.173 137.83V137.212C103.259 137.24 103.305 137.282 103.417 137.323V136.699C104.871 137.206 106.305 137.719 107.759 138.219V138.524V138.815C108.226 138.989 107.759 139.141 108.226 139.287V141.112C108.016 141.008 108.016 141.618 107.522 141.424C107.404 141.514 107.338 141.576 107.272 141.646C107.167 141.736 107.101 141.799 107.029 141.875C107.272 141.965 107.516 142.354 108.009 142.499C108.009 142.825 109.2 144.137 109.45 144.199C109.509 144.345 109.634 144.47 109.687 144.601C109.773 144.747 109.851 144.872 109.93 145.011C109.93 145.323 110.174 146.01 110.174 146.593C110.687 146.745 110.687 147.654 110.687 147.959C110.746 147.994 110.845 148.029 110.904 148.057C111.398 149.125 111.181 151.435 111.661 152.532C111.72 152.573 111.786 152.601 111.904 152.636V153.211C112.148 153.607 112.885 154.773 113.135 154.863C113.181 154.981 113.293 155.106 113.365 155.251C113.437 155.362 113.51 155.529 113.615 155.619V158.373C113.694 158.491 113.74 158.602 113.858 158.762C113.924 158.762 113.997 158.783 114.095 158.831C114.181 158.887 114.233 158.887 114.345 158.908C114.345 159.504 114.582 159.026 114.582 159.581C114.747 159.775 114.918 159.927 115.095 160.059V161.003C115.148 161.003 115.227 161.058 115.299 161.086C115.582 161.495 115.582 163.278 115.582 163.91C115.655 164.028 115.72 164.153 115.826 164.257C115.898 164.402 115.977 164.569 116.069 164.666C116.135 164.708 116.22 164.763 116.326 164.784C116.385 164.784 116.451 164.798 116.563 164.874C116.648 165.013 116.688 165.096 116.767 165.228V165.526C116.885 165.7 116.957 165.818 117.063 165.964C117.109 165.964 117.194 165.991 117.299 166.012C117.385 166.04 117.425 166.109 117.55 166.151V166.421V166.706C117.793 166.803 118.017 167.802 118.017 168.093C118.78 168.371 118.53 172.499 118.53 173.13C118.78 173.519 119.504 174.386 119.727 174.518C119.727 175.094 120.227 175.281 120.227 175.281V175.566C120.471 175.954 121.727 177.03 121.727 177.314C121.971 177.439 122.721 178.299 122.721 178.625C122.787 178.625 122.853 178.66 122.964 178.688C123.03 178.736 123.122 178.764 123.195 178.813C123.287 179.035 123.353 179.25 123.438 179.513C123.938 179.673 124.445 180.741 124.938 180.929C124.998 181.088 125.109 181.178 125.188 181.338V182.816C124.998 182.892 124.859 182.948 124.682 182.975V183.288V183.544C124.938 183.655 125.188 184.03 125.425 184.127C125.511 184.287 125.603 184.425 125.688 184.564C125.688 185.133 126.182 185.362 126.182 185.633C126.373 185.723 126.504 185.737 126.688 185.834V186.146C127.162 186.604 133.426 188.935 133.939 188.838V188.526C134.189 188.609 134.413 188.678 134.669 188.789V188.526C134.919 188.567 135.156 188.678 135.439 188.762C135.439 188.186 136.42 187.943 136.42 187.624C136.604 187.672 136.781 187.756 136.926 187.825V187.527C137.367 187.672 137.782 187.825 138.216 187.957V191.655C137.972 191.842 137.433 192.585 137.433 192.925C136.926 192.751 137.433 193.216 136.926 193.015V193.334V193.674C136.42 193.424 136.926 193.944 136.42 193.771V194.021V194.368C135.926 194.201 135.439 196.414 134.959 196.248V196.546V196.858C134.419 196.685 134.959 197.15 134.419 196.99V197.601C134.327 197.566 134.248 197.524 134.196 197.511V198.114C133.992 198.232 133.84 198.419 133.65 198.51V199.12C133.564 199.092 133.511 199.058 133.432 199.058V199.356V199.661C133.347 199.599 133.242 199.599 133.163 199.599V200.154C133.031 200.23 132.847 200.286 132.682 200.32V200.598V200.91C132.156 200.688 132.156 201.611 131.676 201.43C131.676 202.034 130.926 202.034 130.926 202.631C130.439 202.471 130.926 202.95 130.439 202.79C130.439 203.096 129.939 203.796 129.662 203.741C129.662 204.011 129.412 204.233 129.156 204.136C129.156 204.768 128.932 204.018 128.932 204.622C128.689 204.518 128.175 204.997 127.952 204.865C127.952 205.489 127.662 204.782 127.662 205.35C127.169 205.198 125.958 205.635 125.695 205.85V206.148C125.695 206.148 125.215 205.968 125.215 206.578C124.938 206.447 123.945 207.238 123.945 207.571C123.445 207.356 123.201 208.209 122.971 208.431C122.853 208.375 122.793 208.355 122.728 208.341C122.609 208.584 122.543 208.861 122.478 209.166C122.385 209.132 122.313 209.083 122.26 209.028C122.26 209.028 121.491 209.936 121.491 210.297C120.977 210.068 121.491 210.554 120.977 210.36C120.977 210.672 120.734 210.915 120.734 211.185C120.234 211.012 120.734 211.504 120.234 211.296C120.234 211.567 119.267 212.434 119.267 212.434V212.726V213.045C118.017 213.149 118.78 215.272 118.3 215.966C118.214 215.931 118.109 215.903 118.017 215.868V216.77C118.3 216.867 118.53 217.575 118.53 217.873C118.596 218.012 118.701 218.13 118.78 218.29C118.826 218.29 118.951 218.324 119.036 218.366C119.102 218.415 119.208 218.456 119.26 218.484V224.541C119.497 224.638 119.727 225.04 119.971 225.117C120.102 225.269 120.175 225.415 120.221 225.533C120.221 227.628 119.03 233.491 119.78 235.336C119.852 235.364 119.912 235.399 120.004 235.434V237.55C119.912 237.633 119.852 237.688 119.78 237.772C119.556 237.688 119.431 237.633 119.254 237.55V237.841C118.767 237.973 116.549 237.654 115.813 237.376C115.813 237.654 115.089 237.654 114.826 237.55C114.826 237.55 114.089 238.16 113.852 238.049C113.852 238.368 113.608 238.556 113.352 238.472C113.352 238.771 112.871 239.187 112.871 239.471C112.714 239.374 112.556 239.333 112.385 239.236V239.555C112.319 239.527 112.207 239.499 112.135 239.471C112.069 239.437 111.964 239.374 111.891 239.353V239.666C111.76 239.562 111.582 239.506 111.385 239.478C111.299 239.541 111.22 239.562 111.167 239.666V242.073C111.299 242.254 111.457 242.406 111.674 242.587V242.906V243.211C112.135 243.384 111.674 243.489 112.135 243.704C112.135 243.988 112.385 244.39 112.621 244.814V248.678C112.529 248.782 112.444 248.859 112.385 248.921C112.135 248.81 111.898 249.004 111.898 249.289C111.654 249.316 111.391 249.316 111.181 249.316V249.629C110.904 249.802 109.963 249.393 109.72 249.289C109.634 249.379 109.542 249.421 109.483 249.511V250.066C108.976 249.892 108.733 254.596 108.733 255.2C108.634 255.276 108.568 255.332 108.49 255.415H107.753V255.692C107.516 255.908 106.818 255.575 106.325 255.366C106.22 255.575 106.141 255.741 106.035 255.887C105.831 255.776 105.588 256.282 105.351 256.171C105.351 256.483 105.101 256.99 105.101 257.254C104.608 257.045 104.608 258.87 104.154 258.641V259.571C103.858 259.758 103.404 260.438 103.16 260.674V260.938V261.25C102.93 261.153 102.68 261.638 102.68 261.957C102.607 261.992 102.489 262.096 102.436 262.103C102.351 262.193 102.252 262.27 102.186 262.325C101.936 262.235 101.226 262.533 101.226 262.533V262.825C100.989 262.998 100.285 262.7 100.015 262.582V262.901C99.6335 262.728 99.2322 262.561 98.8177 262.381V262.637C97.8768 262.873 95.699 262.533 94.5146 261.999C94.2646 261.617 93.5869 260.75 93.5869 260.41C92.6263 259.994 91.4025 259.508 90.6788 259.8V260.063H89.9748V260.355C89.7116 260.251 89.2971 260.355 89.2971 260.938C89.1655 261.014 89.1129 261.111 89.0602 261.153C88.3365 260.827 87.593 260.23 87.1456 259.425C86.9877 259.335 86.8429 259.314 86.6521 259.238V259.002C86.4153 258.842 86.231 258.738 85.981 258.627V258.322C85.6915 258.218 85.4941 258.1 85.277 258.031V259.175C85.277 258.62 85.0336 257.607 85.0336 257.045C85.4941 257.24 85.0336 256.747 85.4941 256.941V255.484C85.0336 255.269 85.4941 255.165 85.0336 254.964C85.0336 254.673 85.277 253.896 85.4941 253.979V253.105C85.5863 253.167 85.6389 253.202 85.7573 253.243V252.036C85.6389 251.89 85.5863 251.759 85.4941 251.613C85.277 251.398 85.0336 251.211 84.7901 251.051V250.725C84.5467 250.531 84.3098 250.357 84.0993 250.149C84.0993 249.844 83.869 249.427 83.6124 249.33C83.5269 249.226 83.4413 249.087 83.369 248.928C83.369 248.643 83.1782 247.651 83.1782 247.36C83.0597 247.318 82.9873 247.297 82.9281 247.297C82.9281 246.958 82.665 245.695 82.4807 245.334C82.3755 245.292 82.2965 245.237 82.2373 245.209C81.9609 244.821 81.7767 243.558 81.5004 243.135C81.4017 243.135 81.3293 243.072 81.2635 243.051C80.5595 241.858 81.0332 239.673 80.5595 238.563C80.474 238.542 80.395 238.5 80.3095 238.5V237.002C80.2437 236.967 80.1845 236.967 80.1055 236.925C79.1449 234.802 79.1449 230.903 78.2435 228.731C78.1054 228.704 78.0593 228.683 77.9738 228.641C77.908 228.26 77.8356 227.816 77.7698 227.351C77.2698 227.191 77.7698 227.122 77.2698 226.914V226.31C77.1908 226.275 77.0921 226.22 77.0197 226.185V225.637C76.8421 225.54 76.5855 224.569 76.3618 224.423V223.868C76.2565 223.833 76.1841 223.785 76.1052 223.757C76.1052 223.493 75.8617 222.175 75.8617 221.877C75.7828 221.877 75.7301 221.835 75.6117 221.835C74.7169 219.4 77.4935 211.678 78.908 212.233V209.61C78.4672 209.444 78.9081 209.263 78.4672 209.118C78.4672 208.799 78.2369 208.445 78.2369 208.153C77.7698 207.987 78.2369 207.82 77.7698 207.64C77.7698 206.481 77.5 204.608 77.5 203.47C77.2698 203.068 77.0197 202.624 77.0197 202.36C76.9671 202.277 76.8816 202.159 76.8421 201.999C76.75 201.972 76.6447 201.93 76.5855 201.875V201.597C76.5131 201.576 76.4342 201.514 76.3618 201.514C76.2565 201.368 76.1841 201.278 76.1052 201.118V200.272C76.0394 200.216 75.9407 200.196 75.8617 200.14V199.856V199.585C75.7828 199.509 75.7301 199.509 75.6117 199.509C75.6117 199.169 75.4275 197.892 75.4275 197.594C75.3485 197.594 75.263 197.559 75.2038 197.517C74.9669 196.831 74.7235 194.104 74.7235 193.521C74.2563 193.327 74.7235 193.209 74.2563 193.015C74.2563 192.751 73.8155 191.981 73.8155 191.669C73.6379 191.516 73.4602 191.357 73.3089 191.218V190.913V190.559C72.8549 190.413 73.3089 190.288 72.8549 190.129C72.8549 189.823 72.6049 189.462 72.6049 189.178C72.5325 189.025 72.4536 188.894 72.4009 188.762C72.2956 188.72 72.2233 188.678 72.1575 188.678V188.401C72.0719 188.366 72.0061 188.338 71.9403 188.297V187.985C71.8285 187.957 71.7693 187.936 71.6969 187.874C71.6245 187.777 71.5587 187.672 71.4929 187.527V185.508C71.6969 185.57 71.9403 185.071 71.9403 184.786C72.1575 184.856 72.4009 184.641 72.4009 184.363C72.8549 184.564 72.4009 184.072 72.8549 184.259C72.8549 183.385 73.1049 180.554 72.8549 179.895C72.8023 179.881 72.6773 179.826 72.6444 179.826V179.229C72.5325 179.083 72.4536 178.986 72.4009 178.82C72.2956 178.771 72.2233 178.771 72.1575 178.743V178.452C72.0719 178.341 72.0061 178.209 71.9403 178.07C71.6245 177.841 71.3087 177.64 70.9995 177.446V177.134C70.0849 176.211 67.565 175.531 66.407 175.101C66.407 174.816 66.1635 174.393 65.9662 174.338V173.748C65.8543 173.72 65.7754 173.672 65.703 173.672V173.339V173.165C65.6438 173.047 65.5253 173.047 65.4595 172.992V172.104C65.3674 172 65.3345 171.861 65.249 171.75C65.1832 171.687 65.0516 171.673 65.0055 171.646V171.354C64.9398 171.222 64.8608 171.084 64.795 170.98C64.6174 170.91 64.466 170.855 64.341 170.785V170.501C63.4133 169.578 60.4262 169.655 59.5511 169.252C59.5511 169.835 59.3077 169.169 59.3077 169.779C59.2156 169.717 59.1037 169.717 59.0577 169.648C58.9656 169.648 58.8998 169.648 58.8471 169.571C58.8471 170.168 58.6432 169.488 58.6432 170.085C58.3602 169.994 57.6628 170.029 57.6628 170.293C57.5312 170.237 57.3996 170.196 57.2483 170.092V170.466C56.5706 170.744 54.531 169.988 53.373 169.55C53.373 169.231 53.169 168.6 53.169 168.01C53.0374 167.747 52.8335 167.538 52.7216 167.233C52.261 167.081 50.6688 166.172 50.4846 166.401V166.685C50.3332 166.616 50.1556 166.567 50.024 166.498C50.024 166.782 49.5437 166.623 49.5437 167.192C49.4911 167.275 49.4187 167.344 49.3529 167.407C49.2739 167.4 49.1687 167.344 49.116 167.344V167.587C49.0437 167.587 48.945 167.573 48.9055 167.545V167.753C48.8397 167.788 48.741 167.788 48.6686 167.753V168.045C48.616 168.017 48.4976 167.989 48.4318 167.92C48.3594 168.017 48.2936 168.08 48.2212 168.149C48.162 168.315 48.083 168.489 48.0304 168.628C45.7671 167.795 43.7537 163.847 42.2141 163.272C42.1023 163.119 42.0233 163.022 41.9641 162.904V162.606C41.9049 162.474 41.8194 162.356 41.7667 162.252C41.5299 162.148 40.6219 160.711 40.6219 160.392C40.5693 160.254 40.5035 160.136 40.4179 160.011C40.3061 159.9 40.2534 159.768 40.1679 159.629C39.9574 159.546 39.76 159.22 39.5034 159.116C39.4442 158.97 39.3652 158.88 39.2928 158.727C39.1547 158.006 39.0296 157.277 38.8454 156.569C38.7665 156.521 38.7007 156.507 38.6349 156.431V155.903C38.4243 155.792 37.9703 155.05 37.9703 154.779C37.5229 154.62 37.1216 153.572 36.6281 153.44C36.5426 153.218 36.4768 153.01 36.411 152.767C36.3518 152.747 36.286 152.698 36.2136 152.663C36.2136 152.663 36.2136 152.115 35.7728 151.928C35.6873 151.831 35.6083 151.692 35.5557 151.56V151.283C35.4504 151.165 35.3714 151.068 35.2991 150.915C34.8714 150.755 34.2266 149.368 33.7595 149.208C33.6739 147.384 33.6213 145.51 33.5621 143.686C33.4107 143.63 33.2528 143.589 33.141 143.519V143.249C32.8844 143.158 32.6738 143.075 32.483 142.999V142.673V142.492C32.6804 142.492 32.8844 142.27 32.8844 142.034C33.141 142.09 33.3515 141.868 33.3515 141.57C34.0029 141.833 33.7529 140.293 34.0029 140.133C34.0753 140.154 34.1476 140.154 34.2266 140.203C34.878 138.989 34.2266 134.736 34.2266 133.355C34.1542 133.188 34.0753 133.071 34.0029 132.98C33.7595 132.876 33.3515 132.141 33.141 132.071V130.635C33.3515 130.732 33.7595 129.747 34.0029 129.789C34.0029 127.798 35.9636 127.062 35.9636 125.64C36.0689 125.571 36.1412 125.515 36.2202 125.411C36.2991 125.473 36.3584 125.515 36.4176 125.515C36.4834 125.411 36.5492 125.383 36.6742 125.321C36.6742 124.766 36.8913 123.961 36.8913 123.392C37.1216 123.461 38.2204 123.024 38.2204 122.733C38.2796 122.733 38.352 122.754 38.4243 122.795C38.4967 122.795 38.5559 122.83 38.6349 122.886C38.7007 122.795 38.7665 122.733 38.8783 122.657V122.358C38.9507 122.393 39.0296 122.442 39.0954 122.442V122.171C39.1612 122.171 39.227 122.206 39.2994 122.261V121.949C39.3784 121.949 39.4507 121.97 39.556 122.046V121.713C39.6021 121.762 39.6942 121.817 39.7665 121.817V121.512C39.8455 121.553 39.9047 121.588 40.0166 121.588V121.345C40.0166 121.345 40.1153 121.373 40.2074 121.429C40.2534 121.345 40.3587 121.29 40.4179 121.207C40.4179 120.887 40.6219 120.665 40.8456 120.776C40.8456 120.207 41.0956 120.88 41.0956 120.263C41.7601 120.513 42.2141 119.514 42.8721 119.729C42.9313 119.701 43.0103 119.639 43.0826 119.535V119.264C43.1616 119.264 43.2208 119.312 43.3261 119.354C43.3655 119.264 43.4642 119.195 43.53 119.111V117.106C43.4642 117.092 43.405 117.058 43.3261 117.058V115.594C43.4642 115.559 43.609 115.545 43.7669 115.504C43.8787 115.406 43.8787 115.344 43.9774 115.254V114.976C44.0761 115.025 44.1419 115.025 44.2011 115.046C44.2801 114.976 44.3262 114.907 44.4446 114.824V114.005C44.8723 113.554 45.7802 113.311 46.6487 113.589C46.6487 113.02 48.0304 113.478 48.0304 112.597C48.4383 112.749 48.0304 112.312 48.4383 112.465V112.18V111.937C48.6752 111.695 49.3595 110.744 49.3595 110.154C49.5305 110.023 49.7016 109.884 49.8529 109.71Z" fill="#0047BA"/>
<path d="M105.476 143.45C104.772 143.04 103.963 142.811 103.121 142.409L105.035 140.793C101.963 139.682 98.3834 138.26 95.8832 135.985C95.2845 135.374 94.0607 135.152 93.2646 134.847L91.1591 132.564L88.9616 135.61L88.1063 135.457C86.1127 135.54 85.0797 134.722 84.073 133.029C83.0269 132.953 82.5202 132.529 81.6452 132.065C80.349 131.371 79.9411 130.49 79.6845 129.012L79.0134 128.776V128.11C77.2303 127.305 75.6315 126.438 73.809 125.758L73.0721 124.363C70.3284 123.42 70.835 120.506 70.835 117.869L71.7496 117.849V117.134L71.5588 117.085L71.4667 117.162C70.3021 116.981 68.3677 116.759 67.4663 116.045C66.2491 116.468 65.1503 115.906 64.0581 115.372L63.9331 116.253L60.2815 114.997L59.6564 115.649C58.9195 115.406 58.2813 115.24 57.5839 115.067L57.3734 115.573L56.5378 115.372L56.1364 116.274C55.0113 115.871 53.952 115.469 52.794 115.067L52.6953 114.414C51.9913 114.095 51.261 113.832 50.5504 113.492L48.3726 115.171L47.9712 116.267L46.5501 115.774V115.899L46.0763 116.267V116.301L45.6355 116.662V120.194C44.8262 120.915 44.313 121.38 43.609 122.178L42.8984 121.984C41.9247 122.594 41.1285 123.441 40.2995 124.287H40.2798L39.1218 125.356L38.7665 125.231L38.7336 126.445L36.3518 129.289C35.9044 129.976 36.0492 130.85 35.9965 131.69L35.7728 131.718L36.3321 133.445L36.2137 140.959L35.8189 148.258L36.8058 149.292L39.885 153.454L39.9903 154.259C40.7733 154.731 41.043 156.701 41.2536 157.756L42.7076 159.914C43.0498 160.621 43.5695 161.225 44.017 161.912C45.1289 162.71 45.9974 163.938 46.8659 164.951V164.562L47.0896 164.59V164.312L48.7081 164.902L49.5832 164.042L50.1359 164.264C51.6755 164.208 52.7809 164.944 54.1889 165.526C55.1955 167.344 54.9587 166.997 57.5115 167.934L58.1826 167.025L58.5314 167.199L58.8472 166.734C60.1631 167.199 60.775 167.337 62.0711 167.497C64.9003 167.892 66.94 169.162 67.644 172.145L68.0453 172.305V173.366C70.0981 174.074 71.4601 174.629 73.0984 176.149V176.26C74.0393 176.891 74.8946 179.007 75.0064 179.985C75.1644 181.734 74.9538 183.544 74.9538 185.355L73.6313 186.361L74.0524 186.507V187.367C74.5525 188.2 74.4867 188.755 75.4144 189.213V190.288L75.7697 190.559C75.9013 191.655 75.8749 191.669 76.7829 192.148C76.8092 193.396 76.875 194.631 77.0264 195.943L77.4606 196.144C77.4803 196.72 77.4803 197.344 77.533 197.906L77.9672 198.1V198.69L78.2041 198.787C78.2041 199.863 78.2699 200.3 78.7633 201.146C79.7634 202.693 79.6713 204.691 79.8292 206.565L80.1582 206.717C80.3227 208.015 80.0595 207.793 81.0004 208.237V214.897L79.3226 214.557C78.3949 216.07 77.6777 218.477 77.5593 220.281L77.9277 220.441C77.9277 221.01 77.9277 221.655 78.033 222.238L78.4409 222.425L79.1055 224.59V224.742L79.3555 224.874V225.818L79.6121 225.915L80.0135 227.705L81.7439 235.274L82.4084 235.572V237.522C82.8953 238.91 82.8229 240.006 82.9611 241.407C83.2835 241.553 83.6914 243.065 83.8888 243.551C84.2178 243.704 84.6388 245.23 84.7968 245.702L85.1455 245.903C85.2968 248.047 85.2113 248.283 86.9154 249.691V249.962C88.5734 251.391 87.6062 254.964 87.6062 256.934L88.8826 258.246C90.9091 256.747 93.4488 258.031 95.4687 258.898C95.6727 260.216 95.5674 260.161 96.778 260.403V259.155L97.9755 259.689V259.425L101.074 260.313L101.134 259.73C101.825 259.078 102.101 259.078 102.101 258.114C103.213 256.032 103.285 256.157 103.515 253.743L104.726 253.902L105.312 252.661L105.476 252.702V143.45ZM105.266 140.633V140.231L105.476 140.328V140.439L105.266 140.633ZM105.476 252.688V143.45C105.956 143.7 106.437 144.074 106.838 144.546C108.167 146.197 108.108 145.635 108.167 147.883L108.634 148.161V149.569L109.187 149.791C109.417 152.31 109.707 154.44 111.575 156.327C111.575 157.541 111.319 158.582 111.937 159.643C112.095 159.914 112.464 160.566 112.582 160.621L113.036 161.01V162.529L113.503 162.668L113.891 165.173L115.484 167.774C116.26 168.378 115.99 168.239 116.076 169.446L116.438 169.661C116.569 170.772 116.457 171.916 116.457 173.047L119.504 177.918C119.813 178.237 119.813 178.216 119.918 178.702C120.918 179.34 120.695 179.049 120.945 180.242L121.603 180.464L122.603 181.595V184.904L124.412 187.277L126.425 188.429C128.531 189.421 131.531 190.746 133.847 191.01L135.985 191.572L134.36 192.446C134.36 193.334 134.36 193.362 133.998 194.028L132.853 193.917V194.271L132.36 194.139V194.555L132.11 194.479V197.046L131.452 198.35L130.603 198.53V199.072L129.978 198.968L129.774 200.32L128.748 200.008L128.472 201.965L127.662 202.617L127.064 202.568L124.412 204.116C123.037 205.413 121.537 206.412 120.438 207.931L119.155 207.557L119.056 208.66L118.898 208.646L117.188 211.387V211.886C116.964 212.066 116.661 212.698 116.596 212.961L115.97 212.712V217.936L116.477 218.276L117.188 219.677V225.838L118.129 226.345C117.885 228.988 117.253 231.819 117.49 234.455L117.188 234.351V235.531L113.529 235.885L112.023 235.746V235.919L111.773 235.829L111.47 237.258L109.095 238.653V243.01L109.641 243.489V244.502L110.562 247.249L109.457 246.881C108.634 247.45 108.147 247.811 107.404 248.463L107.299 249.525C106.97 250.704 106.878 252.022 106.779 253.257L105.476 252.688ZM105.476 140.321H105.502V139.696L105.674 139.787V140.258L105.476 140.432V140.321Z" fill="#0047BA"/>
<path d="M28.5616 98.0407L159.889 51.917" stroke="white" stroke-width="2" stroke-miterlimit="10"/>
<path d="M258.305 98.11L126.925 52.1459" stroke="white" stroke-width="2" stroke-miterlimit="10"/>
<path d="M104.798 102.863C117.115 99.0397 128.379 95.4944 138.676 92.2613C148.072 89.2502 156.809 86.5374 164.902 83.9843C166.712 84.2965 168.541 84.6503 170.396 84.9764C172.265 85.358 174.153 85.7118 176.101 86.0795C168.12 88.7645 159.533 91.7617 150.125 94.981C139.933 98.4846 128.702 102.356 116.339 106.567C114.339 105.936 112.365 105.312 110.404 104.708C108.509 104.091 106.667 103.473 104.798 102.863Z" fill="white"/>
<g filter="url(#filter0_d_220_112)">
<path d="M239.515 221.49L231.321 149.366L243.821 149.16L250.084 219.106L239.515 221.49Z" fill="#0047BA"/>
<path d="M194.913 183.024L201.661 228.015L228.114 224.043L226.163 211.712L210.195 215.005L208.809 203.61L225.952 197.585L222.234 185.284L206.853 189.418L205.718 174.077L219.821 171.635L219.611 157.509L193.953 162.728L194.913 183.024Z" fill="#0047BA"/>
<path d="M171.351 163.67C155.132 166.411 153.129 186.197 154.069 190.008L154.464 216.496L163.165 237.199L181.539 233.773L186.389 223.978L186.177 209.789L186.105 204.932L174.218 207.779L174.343 216.166L165.898 221.888L162.937 192.069L165.282 180.55L174.492 180.397L174.033 195.418L184.174 193.925L183.983 181.123L183.753 165.672L171.351 163.67Z" fill="#0047BA"/>
<path d="M239.515 221.49L231.321 149.366L243.821 149.16L250.084 219.106L239.515 221.49Z" stroke="black"/>
<path d="M194.913 183.024L201.661 228.015L228.114 224.043L226.163 211.712L210.195 215.005L208.809 203.61L225.952 197.585L222.234 185.284L206.853 189.418L205.718 174.077L219.821 171.635L219.611 157.509L193.953 162.728L194.913 183.024Z" stroke="black"/>
<path d="M171.351 163.67C155.132 166.411 153.129 186.197 154.069 190.008L154.464 216.496L163.165 237.199L181.539 233.773L186.389 223.978L186.177 209.789L186.105 204.932L174.218 207.779L174.343 216.166L165.898 221.888L162.937 192.069L165.282 180.55L174.492 180.397L174.033 195.418L184.174 193.925L183.983 181.123L183.753 165.672L171.351 163.67Z" stroke="black"/>
</g>
<path d="M93.1263 247.457C97.7517 248.879 101.535 253.889 101.535 258.683C101.535 263.421 97.7517 266.176 93.1263 264.747C88.4549 263.324 84.6848 258.301 84.6848 253.493C84.6914 248.789 88.4614 246.049 93.1263 247.457Z" fill="#0047BA" stroke="white" stroke-miterlimit="10"/>
<path d="M115.444 38.1381C125.221 33.8435 134.683 29.7432 143.868 25.7122C152.658 21.8547 161.277 18.0804 169.587 14.438C171.35 24.3038 173.127 34.0794 174.89 43.744C176.587 53.3601 178.344 62.8304 180.048 72.2314C172.12 76.6856 163.915 81.2369 155.54 85.927C146.815 90.7836 137.841 95.7997 128.577 101.017C126.438 90.7836 124.28 80.4737 122.103 70.0529C119.892 59.5488 117.681 48.899 115.444 38.1381Z" fill="#0047BA"/>
<path d="M118.418 39.7338C127.32 35.8277 135.972 31.9841 144.315 28.2723C152.441 24.7131 160.323 21.2025 168.008 17.8029C169.62 26.8639 171.284 35.8555 172.89 44.75C174.508 53.5682 176.101 62.3031 177.66 71.0033C170.343 75.0898 162.803 79.2248 155.046 83.5333C147.045 87.9389 138.847 92.4903 130.38 97.222C128.445 87.8349 126.484 78.3923 124.497 68.8872C122.484 59.2712 120.484 49.565 118.418 39.7338Z" fill="white"/>
<path d="M129.531 41.8292C132.867 43.6122 136.176 45.3953 139.453 47.1506C142.683 48.8573 145.828 50.571 148.967 52.25C150.94 48.1011 152.941 43.9522 154.895 39.8102C156.809 35.7445 158.757 31.6789 160.678 27.6549C161.422 26.1424 162.922 25.4763 164.047 26.1146C165.165 26.7945 165.494 28.5984 164.797 30.0762C162.895 34.1211 160.987 38.1381 159.06 42.2107C157.138 46.2695 155.211 50.4114 153.237 54.5395C156.296 56.163 159.296 57.7935 162.316 59.3961C165.277 60.9919 168.166 62.4974 171.054 64.0723C172.12 64.6621 172.442 66.3619 171.745 67.9021C171.087 69.4215 169.593 70.1916 168.521 69.6435C165.619 68.1172 162.665 66.5978 159.685 65.0506C156.691 63.5034 153.599 61.8938 150.546 60.2842C148.552 64.4817 146.559 68.7347 144.512 72.9668C142.512 77.2614 140.486 81.556 138.485 85.9339C137.656 87.599 135.992 88.494 134.808 87.8904C133.525 87.3631 133.176 85.5038 133.959 83.8525C136.064 79.4885 138.117 75.1592 140.17 70.7883C142.196 66.5422 144.19 62.2823 146.197 58.0224C143.078 56.392 139.893 54.7061 136.617 53.0201C133.321 51.3203 129.952 49.5719 126.577 47.7542C125.294 47.1159 124.912 45.2149 125.708 43.5983C126.524 41.9402 128.248 41.1492 129.531 41.8292Z" fill="#0047BA"/>
<path d="M26.0548 335.847L30.4762 335.417C30.746 336.902 31.2855 337.991 32.0948 338.678C32.9041 339.378 34.0029 339.725 35.3911 339.725C36.8584 339.725 37.9571 339.42 38.7006 338.803C39.4441 338.185 39.8126 337.457 39.8126 336.631C39.8126 336.104 39.6547 335.646 39.3454 335.278C39.0296 334.91 38.4901 334.584 37.7071 334.3C37.1742 334.119 35.9636 333.786 34.0687 333.322C31.6277 332.718 29.9236 331.976 28.9366 331.094C27.5549 329.859 26.8641 328.354 26.8641 326.571C26.8641 325.426 27.1931 324.358 27.8379 323.359C28.4892 322.353 29.4235 321.596 30.6539 321.076C31.8777 320.556 33.3515 320.292 35.0885 320.292C37.9177 320.292 40.0428 320.916 41.4706 322.151C42.8984 323.386 43.6484 325.038 43.7208 327.105L39.1744 327.306C38.9835 326.148 38.5625 325.322 37.9242 324.816C37.2795 324.309 36.3188 324.052 35.0424 324.052C33.7199 324.052 32.687 324.323 31.9369 324.864C31.4566 325.211 31.2131 325.676 31.2131 326.259C31.2131 326.793 31.4369 327.251 31.8908 327.625C32.4698 328.104 33.8581 328.604 36.0688 329.124C38.2861 329.644 39.9178 330.186 40.9771 330.741C42.0364 331.303 42.8655 332.059 43.4642 333.023C44.0629 333.995 44.359 335.188 44.359 336.61C44.359 337.901 44.0037 339.101 43.2865 340.232C42.5694 341.356 41.5561 342.195 40.2468 342.736C38.9375 343.284 37.2992 343.562 35.3451 343.562C32.4962 343.562 30.3118 342.903 28.7853 341.592C27.2589 340.28 26.3509 338.365 26.0548 335.847Z" fill="white"/>
<path d="M47.2672 332.059C47.2672 329.769 47.6093 327.848 48.2936 326.287C48.8002 325.149 49.5042 324.115 50.3925 323.199C51.2807 322.297 52.2479 321.617 53.3006 321.173C54.7021 320.577 56.3206 320.285 58.1563 320.285C61.4724 320.285 64.1305 321.312 66.1241 323.373C68.1177 325.426 69.1178 328.292 69.1178 331.941C69.1178 335.576 68.1308 338.414 66.1504 340.468C64.17 342.514 61.5316 343.548 58.2221 343.548C54.8731 343.548 52.2084 342.528 50.2346 340.482C48.2541 338.449 47.2672 335.639 47.2672 332.059ZM51.9518 331.899C51.9518 334.446 52.5374 336.374 53.7151 337.693C54.8929 339.004 56.3864 339.67 58.2024 339.67C60.0117 339.67 61.4987 339.011 62.6633 337.713C63.8278 336.409 64.4068 334.453 64.4068 331.844C64.4068 329.263 63.841 327.341 62.7093 326.071C61.5776 324.802 60.0775 324.17 58.2024 324.17C56.3272 324.17 54.8139 324.816 53.6691 326.092C52.5242 327.376 51.9518 329.318 51.9518 331.899Z" fill="white"/>
<path d="M72.6312 320.674H77.1777V332.85C77.1777 334.785 77.2303 336.034 77.3487 336.61C77.5461 337.526 78.0067 338.261 78.737 338.83C79.4673 339.385 80.474 339.663 81.7373 339.663C83.0334 339.663 84.0006 339.399 84.6586 338.872C85.3165 338.338 85.7113 337.699 85.8429 336.929C85.981 336.166 86.0403 334.89 86.0403 333.106V320.674H90.5867V332.482C90.5867 335.181 90.4617 337.089 90.2182 338.206C89.9682 339.323 89.5142 340.266 88.8563 341.03C88.1983 341.8 87.3101 342.41 86.2047 342.868C85.0994 343.319 83.6585 343.548 81.8754 343.548C79.7173 343.548 78.0922 343.298 76.9803 342.799C75.8683 342.306 74.9933 341.661 74.3485 340.863C73.7037 340.072 73.276 339.24 73.072 338.372C72.776 337.082 72.6246 335.181 72.6246 332.669V320.674H72.6312Z" fill="white"/>
<path d="M100.456 343.167V324.476H93.7777V320.674H111.674V324.476H105.009V343.167H100.456Z" fill="white"/>
<path d="M114.622 343.167V320.674H119.168V329.526H128.077V320.674H132.63V343.167H128.077V333.335H119.168V343.167H114.622Z" fill="white"/>
<path d="M165.205 343.167H160.264L158.296 338.053H149.289L147.427 343.167H142.604L151.375 320.674H156.184L165.205 343.167ZM156.836 334.265L153.73 325.919L150.69 334.265H156.836Z" fill="white"/>
<path d="M167.652 343.167V320.674H183.095V324.476H172.199V329.797H181.594V333.599H172.192V343.16L167.652 343.167Z" fill="white"/>
<path d="M186.851 343.167V320.674H196.425C198.833 320.674 200.583 320.868 201.669 321.277C202.761 321.68 203.636 322.401 204.287 323.435C204.945 324.469 205.268 325.648 205.268 326.98C205.268 328.673 204.767 330.068 203.781 331.164C202.787 332.267 201.3 332.961 199.326 333.245C200.307 333.814 201.122 334.445 201.761 335.132C202.399 335.819 203.261 337.033 204.346 338.782L207.097 343.173H201.655L198.366 338.275C197.194 336.527 196.398 335.424 195.971 334.973C195.536 334.515 195.082 334.203 194.602 334.029C194.122 333.863 193.359 333.772 192.312 333.772H191.391V343.167H186.851ZM191.404 330.186H194.767C196.951 330.186 198.313 330.095 198.852 329.908C199.392 329.728 199.82 329.409 200.129 328.958C200.438 328.514 200.589 327.945 200.589 327.272C200.589 326.515 200.386 325.905 199.984 325.44C199.576 324.975 199.01 324.684 198.267 324.559C197.898 324.503 196.793 324.483 194.944 324.483H191.398V330.186H191.404Z" fill="white"/>
<path d="M209.419 343.167V320.674H213.966V343.167H209.419Z" fill="white"/>
<path d="M232.711 334.897L237.119 336.291C236.441 338.747 235.316 340.572 233.744 341.765C232.171 342.952 230.178 343.548 227.763 343.548C224.776 343.548 222.315 342.528 220.387 340.482C218.466 338.442 217.499 335.653 217.499 332.114C217.499 328.368 218.466 325.468 220.4 323.393C222.335 321.319 224.881 320.285 228.039 320.285C230.796 320.285 233.033 321.097 234.75 322.727C235.777 323.685 236.54 325.072 237.053 326.869L232.553 327.938C232.283 326.772 231.73 325.849 230.882 325.176C230.039 324.497 229.013 324.163 227.809 324.163C226.138 324.163 224.782 324.767 223.743 325.953C222.703 327.154 222.183 329.089 222.183 331.768C222.183 334.612 222.697 336.638 223.716 337.845C224.736 339.052 226.072 339.656 227.71 339.656C228.921 339.656 229.96 339.267 230.829 338.504C231.711 337.748 232.336 336.541 232.711 334.897Z" fill="white"/>
<path d="M261.332 343.167H256.384L254.416 338.053H245.416L243.554 343.167H238.731L247.501 320.674H252.311L261.332 343.167ZM252.962 334.265L249.857 325.919L246.811 334.265H252.962Z" fill="white"/>
<path d="M590.043 162.377C594.044 161.494 599.769 161 605.231 161C613.688 161 619.15 162.676 622.971 166.431C626.061 169.393 627.786 173.927 627.786 179.059C627.786 187.842 622.695 193.662 616.239 196.027V196.325C620.971 198.105 623.785 202.834 625.247 209.746C627.247 219.023 628.708 225.428 629.978 228H621.797C620.791 226.129 619.437 220.4 617.7 212.124C615.88 202.951 612.61 199.495 605.423 199.197H597.96V228H590.043V162.377ZM597.948 192.662H606.046C614.502 192.662 619.869 187.634 619.869 180.033C619.869 171.446 614.143 167.704 605.77 167.6C601.949 167.6 599.218 167.99 597.948 168.392V192.662Z" fill="#FFBB27"/>
<path d="M569.907 196.595H542.307V220.748H573.07V228H533.135V161H571.489V168.252H542.307V189.421H569.907V196.595Z" fill="#FFBB27"/>
<path d="M491.749 168.357H471.236V161H521.155V168.357H500.549V228H491.749V168.357Z" fill="#FFBB27"/>
<path d="M460.253 193.834C460.253 216.172 448.825 228 434.888 228C420.472 228 410.334 214.714 410.334 195.077C410.334 174.476 421.112 161 435.699 161C450.618 161.013 460.253 174.59 460.253 193.834ZM417.879 194.899C417.879 208.756 424.196 221.18 435.294 221.18C446.477 221.18 452.794 208.959 452.794 194.227C452.794 181.335 447.128 167.858 435.379 167.858C423.716 167.846 417.879 180.65 417.879 194.899Z" fill="#FFBB27"/>
<path d="M381.206 228L404 161H392.971H390.029L383.464 182.27L376.794 204.696L367.235 161H354L370.912 228H376.059H381.206Z" fill="#FFBB27" stroke="black"/>
<path d="M681.188 193.438C675.812 193.438 670.729 192.417 665.938 190.375V220.375L673.875 221.812V227H647.625V221.812L655.75 220.375V139.438L647.625 137.938V132.875L665.938 128.688V136.938C673.229 131.438 680.438 128.688 687.562 128.688C695.188 128.688 701.438 131.5 706.312 137.125C711.271 142.833 713.75 150.312 713.75 159.562C713.75 168.771 711 176.562 705.5 182.938C699.5 189.938 691.396 193.438 681.188 193.438ZM665.938 143.25V178.938C669.521 183.729 675.208 186.125 683 186.125C689 186.125 693.875 183.75 697.625 179C701.125 174.625 702.875 169.354 702.875 163.188C702.875 155.562 701.292 149.375 698.125 144.625C694.708 139.417 690.062 136.812 684.188 136.812C678.312 136.812 672.229 138.958 665.938 143.25ZM725.938 161.625C725.938 156.833 726.75 152.375 728.375 148.25C730.042 144.125 732.292 140.625 735.125 137.75C740.958 131.708 748.146 128.688 756.688 128.688C766.604 128.688 774.354 131.625 779.938 137.5C785.229 143.125 787.875 150.479 787.875 159.562C787.875 169.688 784.875 177.917 778.875 184.25C773.042 190.375 765.833 193.438 757.25 193.438C747.458 193.438 739.708 190.417 734 184.375C728.625 178.708 725.938 171.125 725.938 161.625ZM741.938 143C740.271 145.125 739 147.625 738.125 150.5C737.292 153.375 736.875 156.5 736.875 159.875C736.875 163.208 737.25 166.479 738 169.688C738.792 172.854 740 175.667 741.625 178.125C745.208 183.458 750.375 186.125 757.125 186.125C763.458 186.125 768.375 184.042 771.875 179.875C775.333 175.792 777.062 170.271 777.062 163.312C777.062 150.979 773.542 142.688 766.5 138.438C763.875 136.854 760.771 136.062 757.188 136.062C753.604 136.062 750.583 136.688 748.125 137.938C745.667 139.146 743.604 140.833 741.938 143ZM804.875 139.875L796.875 138.438V133.25L815 128.688V144.625C824.583 134 831.792 128.688 836.625 128.688C840.583 128.688 844.229 130.271 847.562 133.438L844.312 143.562H841.375C841.375 141.521 839.812 140 836.688 139C835.812 138.75 834.938 138.625 834.062 138.625C829.646 138.625 823.292 143.062 815 151.938V185.375L827.375 186.812V192H796.875V186.812L804.875 185.375V139.875ZM868.562 172.875C868.562 181.208 871.938 185.375 878.688 185.375C882.229 185.375 885.667 183.917 889 181L892.375 185.125C888.833 188.042 885.562 190.167 882.562 191.5C879.562 192.792 876.917 193.438 874.625 193.438C872.333 193.438 870.104 192.938 867.938 191.938C865.812 190.938 864.042 189.5 862.625 187.625C859.833 184 858.438 178.854 858.438 172.188V137.5H850.5V132.062L858.438 130.188V121.812L865.812 114.438H868.562V130.188H889.188V137.5H868.562V172.875ZM954.062 188.75C947.979 191.875 943.583 193.438 940.875 193.438C934.792 193.438 931.75 190.854 931.75 185.688V183.75C931.167 184.625 929.562 185.896 926.938 187.562C924.354 189.229 922.333 190.396 920.875 191.062C917.417 192.646 914.792 193.438 913 193.438C911.208 193.438 909.729 193.354 908.562 193.188C907.396 193.062 906.188 192.792 904.938 192.375C903.688 191.958 902.458 191.375 901.25 190.625C900.042 189.875 898.958 188.896 898 187.688C895.875 185.021 894.812 181.542 894.812 177.25C894.812 171.333 896.917 167.208 901.125 164.875C903.792 163.333 906.604 162.375 909.562 162C912.562 161.625 915.292 161.333 917.75 161.125C922.417 160.708 927.083 160.458 931.75 160.375V147.25C931.75 143.625 931.292 141.208 930.375 140C928.833 137.875 926.438 136.812 923.188 136.812C915.938 136.812 908.812 139.167 901.812 143.875L898.188 138.438C907.938 131.938 916.667 128.688 924.375 128.688C931.083 128.688 935.833 130.542 938.625 134.25C940.792 137.125 941.875 141.208 941.875 146.5V179.375C941.875 182.458 942.458 184.208 943.625 184.625C944.042 184.75 944.583 184.812 945.25 184.812C946.917 184.812 949.479 184.167 952.938 182.875L954.062 188.75ZM931.75 165.625C919.917 166.083 912.333 167.271 909 169.188C906.458 170.646 905.188 173 905.188 176.25C905.188 180.958 907 183.854 910.625 184.938C911.625 185.229 912.833 185.375 914.25 185.375C915.708 185.375 917.396 185.083 919.312 184.5C921.229 183.917 923 183.208 924.625 182.375C927.708 180.875 930.083 179.417 931.75 178V165.625ZM975.438 185.375L983.438 186.812V192H957.188V186.812L965.312 185.375V99.3125L957.188 97.75V92.6875L975.438 88.0625V185.375Z" fill="white"/>
<defs>
<filter id="filter0_d_220_112" x="149.376" y="148.652" width="105.245" height="97.1127" filterUnits="userSpaceOnUse" color-interpolation-filters="sRGB">
<feFlood flood-opacity="0" result="BackgroundImageFix"/>
<feColorMatrix in="SourceAlpha" type="matrix" values="0 0 0 0 0 0 0 0 0 0 0 0 0 0 0 0 0 0 127 0" result="hardAlpha"/>
<feOffset dy="4"/>
<feGaussianBlur stdDeviation="2"/>
<feComposite in2="hardAlpha" operator="out"/>
<feColorMatrix type="matrix" values="0 0 0 0 0 0 0 0 0 0 0 0 0 0 0 0 0 0 0.25 0"/>
<feBlend mode="normal" in2="BackgroundImageFix" result="effect1_dropShadow_220_112"/>
<feBlend mode="normal" in="SourceGraphic" in2="effect1_dropShadow_220_112" result="shape"/>
</filter>
</defs>
</svg>
