<svg width="1874" height="516" viewBox="0 0 1874 516" fill="none" xmlns="http://www.w3.org/2000/svg">
<path d="M217.98 424.63V194.73" stroke="#0047BA" stroke-width="4" stroke-miterlimit="10"/>
<path d="M43 140.48L215.94 196.42V424.63L43 353.61V140.48Z" fill="white"/>
<path d="M392.95 140.48L220.04 196.42V424.63L392.95 353.61V140.48Z" fill="white"/>
<path d="M218 82.34L392.95 140.48L217.99 197.07L43 140.48L218 82.34Z" fill="#0047BA"/>
<path d="M75.77 158.13C76.09 158.28 76.79 159.41 77.13 159.89C77.35 160.04 77.58 160.07 77.83 160.13V160.43C78.45 161.17 82.95 162.22 82.95 163.48C83.05 163.51 83.16 163.51 83.31 163.57C83.44 163.66 83.54 163.66 83.64 163.69C83.76 163.48 83.9 163.23 84.01 162.95C84.33 163.11 85.03 162.91 85.34 163.02C85.53 162.75 85.61 162.52 85.71 162.26C87.08 162.71 88.77 162.82 89.88 163.14C89.96 163.05 90.07 162.94 90.2 162.81V162.41C90.3 162.37 90.45 162.26 90.57 162.1C91.9 162.59 93.35 163.01 94.72 163.47C94.72 163.05 95.4 162.45 95.4 162C96.44 162.36 100.62 164.5 101.36 164.32V163.94C101.54 163.99 101.77 164.09 102.05 164.13C102.05 163.33 102.34 164.27 102.34 163.42C102.73 163.5 103.06 163.65 103.41 163.81C103.52 163.94 103.64 164.13 103.81 164.32C104.05 164.5 104.42 164.72 104.66 164.95C105.67 165.15 106.63 165.36 107.56 165.57C107.75 165.46 107.82 165.36 107.95 165.2C109.21 165.62 110.58 166.08 111.83 166.49C111.96 166.66 112.08 166.84 112.23 167.03V167.87C112.31 167.87 112.43 167.9 112.53 167.98C113.29 169.49 111.46 173.12 110.77 172.92V175.08C110.91 175.22 111 175.38 111.15 175.53C111.26 175.75 111.37 175.94 111.46 176.12C111.96 176.27 112.43 176.44 112.9 176.63C113.29 177.14 114.68 178.43 114.68 178.88C116.82 179.53 120.33 181.59 122.84 182.39C122.96 182.58 123.09 182.72 123.2 182.95V183.31C123.3 183.39 123.45 183.44 123.55 183.47C123.65 183.63 123.76 183.84 123.91 184C123.91 184.46 124.33 185.44 124.33 186.31C124.4 186.5 124.52 186.67 124.62 186.76C124.75 187.02 124.84 187.17 125.04 187.31C125.69 187.52 126.76 188.3 127.52 188.57V188.14V187.74C127.98 187.88 128.47 188.06 128.92 188.2V188.6C129.42 188.92 129.86 189.2 130.39 189.53C130.48 189.66 130.6 189.88 130.73 190.03V190.47C130.81 190.67 130.98 190.8 131.11 191.04C131.28 191.09 131.56 191.19 131.75 191.23V191.67C132.5 192.33 133.93 191.97 134.3 192.09C134.44 191.97 134.53 191.85 134.63 191.75C134.63 191.36 135.02 190.62 135.4 190.73V187.74C135.76 187.88 137.85 187.74 138.23 187.84V187.42C138.95 187.64 139.69 187.88 140.44 188.13C140.65 188.47 140.91 188.82 141.15 189.2C141.28 189.27 141.39 189.27 141.47 189.32C141.59 189.37 141.74 189.43 141.85 189.43C141.85 190.33 142.27 189.61 142.27 190.43C142.33 190.48 142.44 190.48 142.64 190.54C142.71 190.57 142.81 190.63 142.93 190.68C143.2 191.05 143.39 191.41 143.67 191.76C144.88 192.18 146.06 192.58 147.28 192.94C147.28 194.21 155.33 198.17 156.81 198.66V197.77C156.94 197.81 157.01 197.87 157.18 197.93V197.03C159.39 197.76 161.57 198.5 163.78 199.22V199.66V200.08C164.49 200.33 163.78 200.55 164.49 200.76V203.39C164.17 203.24 164.17 204.12 163.42 203.84C163.24 203.97 163.14 204.06 163.04 204.16C162.88 204.29 162.78 204.38 162.67 204.49C163.04 204.62 163.41 205.18 164.16 205.39C164.16 205.86 165.97 207.75 166.35 207.84C166.44 208.05 166.63 208.23 166.71 208.42C166.84 208.63 166.96 208.81 167.08 209.01C167.08 209.46 167.45 210.45 167.45 211.29C168.23 211.51 168.23 212.82 168.23 213.26C168.32 213.31 168.47 213.36 168.56 213.4C169.31 214.94 168.98 218.27 169.71 219.85C169.8 219.91 169.9 219.95 170.08 220V220.83C170.45 221.4 171.57 223.08 171.95 223.21C172.02 223.38 172.19 223.56 172.3 223.77C172.41 223.93 172.52 224.17 172.68 224.3V228.27C172.8 228.44 172.87 228.6 173.05 228.83C173.15 228.83 173.26 228.86 173.41 228.93C173.54 229.01 173.62 229.01 173.79 229.04C173.79 229.9 174.15 229.21 174.15 230.01C174.4 230.29 174.66 230.51 174.93 230.7V232.06C175.01 232.06 175.13 232.14 175.24 232.18C175.67 232.77 175.67 235.34 175.67 236.25C175.78 236.42 175.88 236.6 176.04 236.75C176.15 236.96 176.27 237.2 176.41 237.34C176.51 237.4 176.64 237.48 176.8 237.51C176.89 237.51 176.99 237.53 177.16 237.64C177.29 237.84 177.35 237.96 177.47 238.15V238.58C177.65 238.83 177.76 239 177.92 239.21C177.99 239.21 178.12 239.25 178.28 239.28C178.41 239.32 178.47 239.42 178.66 239.48V239.87V240.28C179.03 240.42 179.37 241.86 179.37 242.28C180.53 242.68 180.15 248.63 180.15 249.54C180.53 250.1 181.63 251.35 181.97 251.54C181.97 252.37 182.73 252.64 182.73 252.64V253.05C183.1 253.61 185.01 255.16 185.01 255.57C185.38 255.75 186.52 256.99 186.52 257.46C186.62 257.46 186.72 257.51 186.89 257.55C186.99 257.62 187.13 257.66 187.24 257.73C187.38 258.05 187.48 258.36 187.61 258.74C188.37 258.97 189.14 260.51 189.89 260.78C189.98 261.01 190.15 261.14 190.27 261.37V263.5C189.98 263.61 189.77 263.69 189.5 263.73V264.18V264.55C189.89 264.71 190.27 265.25 190.63 265.39C190.76 265.62 190.9 265.82 191.03 266.02C191.03 266.84 191.78 267.17 191.78 267.56C192.07 267.69 192.27 267.71 192.55 267.85V268.3C193.27 268.96 202.79 272.32 203.57 272.18V271.73C203.95 271.85 204.29 271.95 204.68 272.11V271.73C205.06 271.79 205.42 271.95 205.85 272.07C205.85 271.24 207.34 270.89 207.34 270.43C207.62 270.5 207.89 270.62 208.11 270.72V270.29C208.78 270.5 209.41 270.72 210.07 270.91V276.24C209.7 276.51 208.88 277.58 208.88 278.07C208.11 277.82 208.88 278.49 208.11 278.2V278.66V279.15C207.34 278.79 208.11 279.54 207.34 279.29V279.65V280.15C206.59 279.91 205.85 283.1 205.12 282.86V283.29V283.74C204.3 283.49 205.12 284.16 204.3 283.93V284.81C204.16 284.76 204.04 284.7 203.96 284.68V285.55C203.65 285.72 203.42 285.99 203.13 286.12V287C203 286.96 202.92 286.91 202.8 286.91V287.34V287.78C202.67 287.69 202.51 287.69 202.39 287.69V288.49C202.19 288.6 201.91 288.68 201.66 288.73V289.13V289.58C200.86 289.26 200.86 290.59 200.13 290.33C200.13 291.2 198.99 291.2 198.99 292.06C198.25 291.83 198.99 292.52 198.25 292.29C198.25 292.73 197.49 293.74 197.07 293.66C197.07 294.05 196.69 294.37 196.3 294.23C196.3 295.14 195.96 294.06 195.96 294.93C195.59 294.78 194.81 295.47 194.47 295.28C194.47 296.18 194.03 295.16 194.03 295.98C193.28 295.76 191.44 296.39 191.04 296.7V297.13C191.04 297.13 190.31 296.87 190.31 297.75C189.89 297.56 188.38 298.7 188.38 299.18C187.62 298.87 187.25 300.1 186.9 300.42C186.72 300.34 186.63 300.31 186.53 300.29C186.35 300.64 186.25 301.04 186.15 301.48C186.01 301.43 185.9 301.36 185.82 301.28C185.82 301.28 184.65 302.59 184.65 303.11C183.87 302.78 184.65 303.48 183.87 303.2C183.87 303.65 183.5 304 183.5 304.39C182.74 304.14 183.5 304.85 182.74 304.55C182.74 304.94 181.27 306.19 181.27 306.19V306.61V307.07C179.37 307.22 180.53 310.28 179.8 311.28C179.67 311.23 179.51 311.19 179.37 311.14V312.44C179.8 312.58 180.15 313.6 180.15 314.03C180.25 314.23 180.41 314.4 180.53 314.63C180.6 314.63 180.79 314.68 180.92 314.74C181.02 314.81 181.18 314.87 181.26 314.91V323.64C181.62 323.78 181.97 324.36 182.34 324.47C182.54 324.69 182.65 324.9 182.72 325.07C182.72 328.09 180.91 336.54 182.05 339.2C182.16 339.24 182.25 339.29 182.39 339.34V342.39C182.25 342.51 182.16 342.59 182.05 342.71C181.71 342.59 181.52 342.51 181.25 342.39V342.81C180.51 343 177.14 342.54 176.02 342.14C176.02 342.54 174.92 342.54 174.52 342.39C174.52 342.39 173.4 343.27 173.04 343.11C173.04 343.57 172.67 343.84 172.28 343.72C172.28 344.15 171.55 344.75 171.55 345.16C171.31 345.02 171.07 344.96 170.81 344.82V345.28C170.71 345.24 170.54 345.2 170.43 345.16C170.33 345.11 170.17 345.02 170.06 344.99V345.44C169.86 345.29 169.59 345.21 169.29 345.17C169.16 345.26 169.04 345.29 168.96 345.44V348.91C169.16 349.17 169.4 349.39 169.73 349.65V350.11V350.55C170.43 350.8 169.73 350.95 170.43 351.26C170.43 351.67 170.81 352.25 171.17 352.86V358.43C171.03 358.58 170.9 358.69 170.81 358.78C170.43 358.62 170.07 358.9 170.07 359.31C169.7 359.35 169.3 359.35 168.98 359.35V359.8C168.56 360.05 167.13 359.46 166.76 359.31C166.63 359.44 166.49 359.5 166.4 359.63V360.43C165.63 360.18 165.26 366.96 165.26 367.83C165.11 367.94 165.01 368.02 164.89 368.14H163.77V368.54C163.41 368.85 162.35 368.37 161.6 368.07C161.44 368.37 161.32 368.61 161.16 368.82C160.85 368.66 160.48 369.39 160.12 369.23C160.12 369.68 159.74 370.41 159.74 370.79C158.99 370.49 158.99 373.12 158.3 372.79V374.13C157.85 374.4 157.16 375.38 156.79 375.72V376.1V376.55C156.44 376.41 156.06 377.11 156.06 377.57C155.95 377.62 155.77 377.77 155.69 377.78C155.56 377.91 155.41 378.02 155.31 378.1C154.93 377.97 153.85 378.4 153.85 378.4V378.82C153.49 379.07 152.42 378.64 152.01 378.47V378.93C151.43 378.68 150.82 378.44 150.19 378.18V378.55C148.76 378.89 145.45 378.4 143.65 377.63C143.27 377.08 142.24 375.83 142.24 375.34C140.78 374.74 138.92 374.04 137.82 374.46V374.84H136.75V375.26C136.35 375.11 135.72 375.26 135.72 376.1C135.52 376.21 135.44 376.35 135.36 376.41C134.26 375.94 133.13 375.08 132.45 373.92C132.21 373.79 131.99 373.76 131.7 373.65V373.31C131.34 373.08 131.06 372.93 130.68 372.77V372.33C130.24 372.18 129.94 372.01 129.61 371.91V373.56C129.61 372.76 129.24 371.3 129.24 370.49C129.94 370.77 129.24 370.06 129.94 370.34V368.24C129.24 367.93 129.94 367.78 129.24 367.49C129.24 367.07 129.61 365.95 129.94 366.07V364.81C130.08 364.9 130.16 364.95 130.34 365.01V363.27C130.16 363.06 130.08 362.87 129.94 362.66C129.61 362.35 129.24 362.08 128.87 361.85V361.38C128.5 361.1 128.14 360.85 127.82 360.55C127.82 360.11 127.47 359.51 127.08 359.37C126.95 359.22 126.82 359.02 126.71 358.79C126.71 358.38 126.42 356.95 126.42 356.53C126.24 356.47 126.13 356.44 126.04 356.44C126.04 355.95 125.64 354.13 125.36 353.61C125.2 353.55 125.08 353.47 124.99 353.43C124.57 352.87 124.29 351.05 123.87 350.44C123.72 350.44 123.61 350.35 123.51 350.32C122.44 348.6 123.16 345.45 122.44 343.85C122.31 343.82 122.19 343.76 122.06 343.76V341.6C121.96 341.55 121.87 341.55 121.75 341.49C120.29 338.43 120.29 332.81 118.92 329.68C118.71 329.64 118.64 329.61 118.51 329.55C118.41 329 118.3 328.36 118.2 327.69C117.44 327.46 118.2 327.36 117.44 327.06V326.19C117.32 326.14 117.17 326.06 117.06 326.01V325.22C116.79 325.08 116.4 323.68 116.06 323.47V322.67C115.9 322.62 115.79 322.55 115.67 322.51C115.67 322.13 115.3 320.23 115.3 319.8C115.18 319.8 115.1 319.74 114.92 319.74C113.56 316.23 117.78 305.1 119.93 305.9V302.12C119.26 301.88 119.93 301.62 119.26 301.41C119.26 300.95 118.91 300.44 118.91 300.02C118.2 299.78 118.91 299.54 118.2 299.28C118.2 297.61 117.79 294.91 117.79 293.27C117.44 292.69 117.06 292.05 117.06 291.67C116.98 291.55 116.85 291.38 116.79 291.15C116.65 291.11 116.49 291.05 116.4 290.97V290.57C116.29 290.54 116.17 290.45 116.06 290.45C115.9 290.24 115.79 290.11 115.67 289.88V288.66C115.57 288.58 115.42 288.55 115.3 288.47V288.06V287.67C115.18 287.56 115.1 287.56 114.92 287.56C114.92 287.07 114.64 285.23 114.64 284.8C114.52 284.8 114.39 284.75 114.3 284.69C113.94 283.7 113.57 279.77 113.57 278.93C112.86 278.65 113.57 278.48 112.86 278.2C112.86 277.82 112.19 276.71 112.19 276.26C111.92 276.04 111.65 275.81 111.42 275.61V275.17V274.66C110.73 274.45 111.42 274.27 110.73 274.04C110.73 273.6 110.35 273.08 110.35 272.67C110.24 272.45 110.12 272.26 110.04 272.07C109.88 272.01 109.77 271.95 109.67 271.95V271.55C109.54 271.5 109.44 271.46 109.34 271.4V270.95C109.17 270.91 109.08 270.88 108.97 270.79C108.86 270.65 108.76 270.5 108.66 270.29V267.38C108.97 267.47 109.34 266.75 109.34 266.34C109.67 266.44 110.04 266.13 110.04 265.73C110.73 266.02 110.04 265.31 110.73 265.58C110.73 264.32 111.11 260.24 110.73 259.29C110.65 259.27 110.46 259.19 110.41 259.19V258.33C110.24 258.12 110.12 257.98 110.04 257.74C109.88 257.67 109.77 257.67 109.67 257.63V257.21C109.54 257.05 109.44 256.86 109.34 256.66C108.86 256.33 108.38 256.04 107.91 255.76V255.31C106.52 253.98 102.69 253 100.93 252.38C100.93 251.97 100.56 251.36 100.26 251.28V250.43C100.09 250.39 99.97 250.32 99.86 250.32V249.84V249.59C99.77 249.42 99.59 249.42 99.49 249.34V248.06C99.35 247.91 99.3 247.71 99.17 247.55C99.07 247.46 98.87 247.44 98.8 247.4V246.98C98.7 246.79 98.58 246.59 98.48 246.44C98.21 246.34 97.98 246.26 97.79 246.16V245.75C96.38 244.42 91.84 244.53 90.51 243.95C90.51 244.79 90.14 243.83 90.14 244.71C90 244.62 89.83 244.62 89.76 244.52C89.62 244.52 89.52 244.52 89.44 244.41C89.44 245.27 89.13 244.29 89.13 245.15C88.7 245.02 87.64 245.07 87.64 245.45C87.44 245.37 87.24 245.31 87.01 245.16V245.7C85.98 246.1 82.88 245.01 81.12 244.38C81.12 243.92 80.81 243.01 80.81 242.16C80.61 241.78 80.3 241.48 80.13 241.04C79.43 240.82 77.01 239.51 76.73 239.84V240.25C76.5 240.15 76.23 240.08 76.03 239.98C76.03 240.39 75.3 240.16 75.3 240.98C75.22 241.1 75.11 241.2 75.01 241.29C74.89 241.28 74.73 241.2 74.65 241.2V241.55C74.54 241.55 74.39 241.53 74.33 241.49V241.79C74.23 241.84 74.08 241.84 73.97 241.79V242.21C73.89 242.17 73.71 242.13 73.61 242.03C73.5 242.17 73.4 242.26 73.29 242.36C73.2 242.6 73.08 242.85 73 243.05C69.56 241.85 66.5 236.16 64.16 235.33C63.99 235.11 63.87 234.97 63.78 234.8V234.37C63.69 234.18 63.56 234.01 63.48 233.86C63.12 233.71 61.74 231.64 61.74 231.18C61.66 230.98 61.56 230.81 61.43 230.63C61.26 230.47 61.18 230.28 61.05 230.08C60.73 229.96 60.43 229.49 60.04 229.34C59.95 229.13 59.83 229 59.72 228.78C59.51 227.74 59.32 226.69 59.04 225.67C58.92 225.6 58.82 225.58 58.72 225.47V224.71C58.4 224.55 57.71 223.48 57.71 223.09C57.03 222.86 56.42 221.35 55.67 221.16C55.54 220.84 55.44 220.54 55.34 220.19C55.25 220.16 55.15 220.09 55.04 220.04C55.04 220.04 55.04 219.25 54.37 218.98C54.24 218.84 54.12 218.64 54.04 218.45V218.05C53.88 217.88 53.76 217.74 53.65 217.52C53 217.29 52.02 215.29 51.31 215.06C51.18 212.43 51.1 209.73 51.01 207.1C50.78 207.02 50.54 206.96 50.37 206.86V206.47C49.98 206.34 49.66 206.22 49.37 206.11V205.64V205.38C49.67 205.38 49.98 205.06 49.98 204.72C50.37 204.8 50.69 204.48 50.69 204.05C51.68 204.43 51.3 202.21 51.68 201.98C51.79 202.01 51.9 202.01 52.02 202.08C53.01 200.33 52.02 194.2 52.02 192.21C51.91 191.97 51.79 191.8 51.68 191.67C51.31 191.52 50.69 190.46 50.37 190.36V188.29C50.69 188.43 51.31 187.01 51.68 187.07C51.68 184.2 54.66 183.14 54.66 181.09C54.82 180.99 54.93 180.91 55.05 180.76C55.17 180.85 55.26 180.91 55.35 180.91C55.45 180.76 55.55 180.72 55.74 180.63C55.74 179.83 56.07 178.67 56.07 177.85C56.42 177.95 58.09 177.32 58.09 176.9C58.18 176.9 58.29 176.93 58.4 176.99C58.51 176.99 58.6 177.04 58.72 177.12C58.82 176.99 58.92 176.9 59.09 176.79V176.36C59.2 176.41 59.32 176.48 59.42 176.48V176.09C59.52 176.09 59.62 176.14 59.73 176.22V175.77C59.85 175.77 59.96 175.8 60.12 175.91V175.43C60.19 175.5 60.33 175.58 60.44 175.58V175.14C60.56 175.2 60.65 175.25 60.82 175.25V174.9C60.82 174.9 60.97 174.94 61.11 175.02C61.18 174.9 61.34 174.82 61.43 174.7C61.43 174.24 61.74 173.92 62.08 174.08C62.08 173.26 62.46 174.23 62.46 173.34C63.47 173.7 64.16 172.26 65.16 172.57C65.25 172.53 65.37 172.44 65.48 172.29V171.9C65.6 171.9 65.69 171.97 65.85 172.03C65.91 171.9 66.06 171.8 66.16 171.68V168.79C66.06 168.77 65.97 168.72 65.85 168.72V166.61C66.06 166.56 66.28 166.54 66.52 166.48C66.69 166.34 66.69 166.25 66.84 166.12V165.72C66.99 165.79 67.09 165.79 67.18 165.82C67.3 165.72 67.37 165.62 67.55 165.5V164.32C68.2 163.67 69.58 163.32 70.9 163.72C70.9 162.9 73 163.56 73 162.29C73.62 162.51 73 161.88 73.62 162.1V161.69V161.34C73.98 160.99 75.02 159.62 75.02 158.77C75.28 158.58 75.54 158.38 75.77 158.13Z" fill="#0047BA"/>
<path d="M160.31 206.76C159.24 206.17 158.01 205.84 156.73 205.26L159.64 202.93C154.97 201.33 149.53 199.28 145.73 196C144.82 195.12 142.96 194.8 141.75 194.36L138.55 191.07L135.21 195.46L133.91 195.24C130.88 195.36 129.31 194.18 127.78 191.74C126.19 191.63 125.42 191.02 124.09 190.35C122.12 189.35 121.5 188.08 121.11 185.95L120.09 185.61V184.65C117.38 183.49 114.95 182.24 112.18 181.26L111.06 179.25C106.89 177.89 107.66 173.69 107.66 169.89L109.05 169.86V168.83L108.76 168.76L108.62 168.87C106.85 168.61 103.91 168.29 102.54 167.26C100.69 167.87 99.02 167.06 97.36 166.29L97.17 167.56L91.62 165.75L90.67 166.69C89.55 166.34 88.58 166.1 87.52 165.85L87.2 166.58L85.93 166.29L85.32 167.59C83.61 167.01 82 166.43 80.24 165.85L80.09 164.91C79.02 164.45 77.91 164.07 76.83 163.58L73.52 166L72.91 167.58L70.75 166.87V167.05L70.03 167.58V167.63L69.36 168.15V173.24C68.13 174.28 67.35 174.95 66.28 176.1L65.2 175.82C63.72 176.7 62.51 177.92 61.25 179.14H61.22L59.46 180.68L58.92 180.5L58.87 182.25L55.25 186.35C54.57 187.34 54.79 188.6 54.71 189.81L54.37 189.85L55.22 192.34L55.04 203.17L54.44 213.69L55.94 215.18L60.62 221.18L60.78 222.34C61.97 223.02 62.38 225.86 62.7 227.38L64.91 230.49C65.43 231.51 66.22 232.38 66.9 233.37C68.59 234.52 69.91 236.29 71.23 237.75V237.19L71.57 237.23V236.83L74.03 237.68L75.36 236.44L76.2 236.76C78.54 236.68 80.22 237.74 82.36 238.58C83.89 241.2 83.53 240.7 87.41 242.05L88.43 240.74L88.96 240.99L89.44 240.32C91.44 240.99 92.37 241.19 94.34 241.42C98.64 241.99 101.74 243.82 102.81 248.12L103.42 248.35V249.88C106.54 250.9 108.61 251.7 111.1 253.89V254.05C112.53 254.96 113.83 258.01 114 259.42C114.24 261.94 113.92 264.55 113.92 267.16L111.91 268.61L112.55 268.82V270.06C113.31 271.26 113.21 272.06 114.62 272.72V274.27L115.16 274.66C115.36 276.24 115.32 276.26 116.7 276.95C116.74 278.75 116.84 280.53 117.07 282.42L117.73 282.71C117.76 283.54 117.76 284.44 117.84 285.25L118.5 285.53V286.38L118.86 286.52C118.86 288.07 118.96 288.7 119.71 289.92C121.23 292.15 121.09 295.03 121.33 297.73L121.83 297.95C122.08 299.82 121.68 299.5 123.11 300.14V309.74L120.56 309.25C119.15 311.43 118.06 314.9 117.88 317.5L118.44 317.73C118.44 318.55 118.44 319.48 118.6 320.32L119.22 320.59L120.23 323.71V323.93L120.61 324.12V325.48L121 325.62L121.61 328.2L124.24 339.11L125.25 339.54V342.35C125.99 344.35 125.88 345.93 126.09 347.95C126.58 348.16 127.2 350.34 127.5 351.04C128 351.26 128.64 353.46 128.88 354.14L129.41 354.43C129.64 357.52 129.51 357.86 132.1 359.89V360.28C134.62 362.34 133.15 367.49 133.15 370.33L135.09 372.22C138.17 370.06 142.03 371.91 145.1 373.16C145.41 375.06 145.25 374.98 147.09 375.33V373.53L148.91 374.3V373.92L153.62 375.2L153.71 374.36C154.76 373.42 155.18 373.42 155.18 372.03C156.87 369.03 156.98 369.21 157.33 365.73L159.17 365.96L160.06 364.17L160.31 364.23V206.76ZM159.99 202.7V202.12L160.31 202.26V202.42L159.99 202.7ZM160.31 364.21V206.76C161.04 207.12 161.77 207.66 162.38 208.34C164.4 210.72 164.31 209.91 164.4 213.15L165.11 213.55V215.58L165.95 215.9C166.3 219.53 166.74 222.6 169.58 225.32C169.58 227.07 169.19 228.57 170.13 230.1C170.37 230.49 170.93 231.43 171.11 231.51L171.8 232.07V234.26L172.51 234.46L173.1 238.07L175.52 241.82C176.7 242.69 176.29 242.49 176.42 244.23L176.97 244.54C177.17 246.14 177 247.79 177 249.42L181.63 256.44C182.1 256.9 182.1 256.87 182.26 257.57C183.78 258.49 183.44 258.07 183.82 259.79L184.82 260.11L186.34 261.74V266.51L189.09 269.93L192.15 271.59C195.35 273.02 199.91 274.93 203.43 275.31L206.68 276.12L204.21 277.38C204.21 278.66 204.21 278.7 203.66 279.66L201.92 279.5V280.01L201.17 279.82V280.42L200.79 280.31V284.01L199.79 285.89L198.5 286.15V286.93L197.55 286.78L197.24 288.73L195.68 288.28L195.26 291.1L194.03 292.04L193.12 291.97L189.09 294.2C187 296.07 184.72 297.51 183.05 299.7L181.1 299.16L180.95 300.75L180.71 300.73L178.11 304.68V305.4C177.77 305.66 177.31 306.57 177.21 306.95L176.26 306.59V314.12L177.03 314.61L178.11 316.63V325.51L179.54 326.24C179.17 330.05 178.21 334.13 178.57 337.93L178.11 337.78V339.48L172.55 339.99L170.26 339.79V340.04L169.88 339.91L169.42 341.97L165.81 343.98V350.26L166.64 350.95V352.41L168.04 356.37L166.36 355.84C165.11 356.66 164.37 357.18 163.24 358.12L163.08 359.65C162.58 361.35 162.44 363.25 162.29 365.03L160.31 364.21ZM160.31 202.25H160.35V201.35L160.61 201.48V202.16L160.31 202.41V202.25Z" fill="#0047BA"/>
<path d="M43.41 141.31L243.01 74.83" stroke="white" stroke-width="2" stroke-miterlimit="10"/>
<path d="M392.59 141.41L192.91 75.16" stroke="white" stroke-width="2" stroke-miterlimit="10"/>
<path d="M159.28 148.26C178 142.75 195.12 137.64 210.77 132.98C225.05 128.64 238.33 124.73 250.63 121.05C253.38 121.5 256.16 122.01 258.98 122.48C261.82 123.03 264.69 123.54 267.65 124.07C255.52 127.94 242.47 132.26 228.17 136.9C212.68 141.95 195.61 147.53 176.82 153.6C173.78 152.69 170.78 151.79 167.8 150.92C164.92 150.03 162.12 149.14 159.28 148.26Z" fill="white"/>
<g filter="url(#filter0_d_218_2)">
<path d="M364.032 319.242L351.578 215.288L370.576 214.99L380.095 315.807L364.032 319.242Z" fill="#0047BA"/>
<path d="M296.243 263.8L306.499 328.647L346.703 322.923L343.738 305.15L319.469 309.895L317.363 293.472L343.418 284.788L337.767 267.057L314.39 273.016L312.665 250.904L334.1 247.385L333.78 227.024L294.783 234.546L296.243 263.8Z" fill="#0047BA"/>
<path d="M260.431 235.904C235.78 239.855 232.736 268.373 234.165 273.867L234.765 312.044L247.989 341.885L275.915 336.946L283.287 322.829L282.965 302.377L282.855 295.377L264.788 299.48L264.978 311.569L252.143 319.817L247.643 276.837L251.207 260.234L265.205 260.014L264.508 281.664L279.92 279.512L279.63 261.06L279.28 238.79L260.431 235.904Z" fill="#0047BA"/>
<path d="M364.032 319.242L351.578 215.288L370.576 214.99L380.095 315.807L364.032 319.242Z" stroke="black"/>
<path d="M296.243 263.8L306.499 328.647L346.703 322.923L343.738 305.15L319.469 309.895L317.363 293.472L343.418 284.788L337.767 267.057L314.39 273.016L312.665 250.904L334.1 247.385L333.78 227.024L294.783 234.546L296.243 263.8Z" stroke="black"/>
<path d="M260.431 235.904C235.78 239.855 232.736 268.373 234.165 273.867L234.765 312.044L247.989 341.885L275.915 336.946L283.287 322.829L282.965 302.377L282.855 295.377L264.788 299.48L264.978 311.569L252.143 319.817L247.643 276.837L251.207 260.234L265.205 260.014L264.508 281.664L279.92 279.512L279.63 261.06L279.28 238.79L260.431 235.904Z" stroke="black"/>
</g>
<path d="M141.54 356.67C148.57 358.72 154.32 365.94 154.32 372.85C154.32 379.68 148.57 383.65 141.54 381.59C134.44 379.54 128.71 372.3 128.71 365.37C128.72 358.59 134.45 354.64 141.54 356.67Z" fill="#0047BA" stroke="white" stroke-miterlimit="10"/>
<path d="M175.46 54.97C190.32 48.78 204.7 42.87 218.66 37.06C232.02 31.5 245.12 26.06 257.75 20.81C260.43 35.03 263.13 49.12 265.81 63.05C268.39 76.91 271.06 90.56 273.65 104.11C261.6 110.53 249.13 117.09 236.4 123.85C223.14 130.85 209.5 138.08 195.42 145.6C192.17 130.85 188.89 115.99 185.58 100.97C182.22 85.83 178.86 70.48 175.46 54.97Z" fill="#0047BA"/>
<path d="M179.98 57.27C193.51 51.64 206.66 46.1 219.34 40.75C231.69 35.62 243.67 30.56 255.35 25.66C257.8 38.72 260.33 51.68 262.77 64.5C265.23 77.21 267.65 89.8 270.02 102.34C258.9 108.23 247.44 114.19 235.65 120.4C223.49 126.75 211.03 133.31 198.16 140.13C195.22 126.6 192.24 112.99 189.22 99.29C186.16 85.43 183.12 71.44 179.98 57.27Z" fill="white"/>
<path d="M196.87 60.29C201.94 62.86 206.97 65.43 211.95 67.96C216.86 70.42 221.64 72.89 226.41 75.31C229.41 69.33 232.45 63.35 235.42 57.38C238.33 51.52 241.29 45.66 244.21 39.86C245.34 37.68 247.62 36.72 249.33 37.64C251.03 38.62 251.53 41.22 250.47 43.35C247.58 49.18 244.68 54.97 241.75 60.84C238.83 66.69 235.9 72.66 232.9 78.61C237.55 80.95 242.11 83.3 246.7 85.61C251.2 87.91 255.59 90.08 259.98 92.35C261.6 93.2 262.09 95.65 261.03 97.87C260.03 100.06 257.76 101.17 256.13 100.38C251.72 98.18 247.23 95.99 242.7 93.76C238.15 91.53 233.45 89.21 228.81 86.89C225.78 92.94 222.75 99.07 219.64 105.17C216.6 111.36 213.52 117.55 210.48 123.86C209.22 126.26 206.69 127.55 204.89 126.68C202.94 125.92 202.41 123.24 203.6 120.86C206.8 114.57 209.92 108.33 213.04 102.03C216.12 95.91 219.15 89.77 222.2 83.63C217.46 81.28 212.62 78.85 207.64 76.42C202.63 73.97 197.51 71.45 192.38 68.83C190.43 67.91 189.85 65.17 191.06 62.84C192.3 60.45 194.92 59.31 196.87 60.29Z" fill="#0047BA"/>
<path d="M39.6 484.07L46.32 483.45C46.73 485.59 47.55 487.16 48.78 488.15C50.01 489.16 51.68 489.66 53.79 489.66C56.02 489.66 57.69 489.22 58.82 488.33C59.95 487.44 60.51 486.39 60.51 485.2C60.51 484.44 60.27 483.78 59.8 483.25C59.32 482.72 58.5 482.25 57.31 481.84C56.5 481.58 54.66 481.1 51.78 480.43C48.07 479.56 45.48 478.49 43.98 477.22C41.88 475.44 40.83 473.27 40.83 470.7C40.83 469.05 41.33 467.51 42.31 466.07C43.3 464.62 44.72 463.53 46.59 462.78C48.45 462.03 50.69 461.65 53.33 461.65C57.63 461.65 60.86 462.55 63.03 464.33C65.2 466.11 66.34 468.49 66.45 471.47L59.54 471.76C59.25 470.09 58.61 468.9 57.64 468.17C56.66 467.44 55.2 467.07 53.26 467.07C51.25 467.07 49.68 467.46 48.54 468.24C47.81 468.74 47.44 469.41 47.44 470.25C47.44 471.02 47.78 471.68 48.47 472.22C49.35 472.91 51.46 473.63 54.82 474.38C58.19 475.13 60.67 475.91 62.28 476.71C63.89 477.52 65.15 478.61 66.06 480C66.97 481.4 67.42 483.12 67.42 485.17C67.42 487.03 66.88 488.76 65.79 490.39C64.7 492.01 63.16 493.22 61.17 494C59.18 494.79 56.69 495.19 53.72 495.19C49.39 495.19 46.07 494.24 43.75 492.35C41.43 490.46 40.05 487.7 39.6 484.07Z" fill="white"/>
<path d="M71.84 478.61C71.84 475.31 72.36 472.54 73.4 470.29C74.17 468.65 75.24 467.16 76.59 465.84C77.94 464.54 79.41 463.56 81.01 462.92C83.14 462.06 85.6 461.64 88.39 461.64C93.43 461.64 97.47 463.12 100.5 466.09C103.53 469.05 105.05 473.18 105.05 478.44C105.05 483.68 103.55 487.77 100.54 490.73C97.53 493.68 93.52 495.17 88.49 495.17C83.4 495.17 79.35 493.7 76.35 490.75C73.34 487.82 71.84 483.77 71.84 478.61ZM78.96 478.38C78.96 482.05 79.85 484.83 81.64 486.73C83.43 488.62 85.7 489.58 88.46 489.58C91.21 489.58 93.47 488.63 95.24 486.76C97.01 484.88 97.89 482.06 97.89 478.3C97.89 474.58 97.03 471.81 95.31 469.98C93.59 468.15 91.31 467.24 88.46 467.24C85.61 467.24 83.31 468.17 81.57 470.01C79.83 471.86 78.96 474.66 78.96 478.38Z" fill="white"/>
<path d="M110.39 462.2H117.3V479.75C117.3 482.54 117.38 484.34 117.56 485.17C117.86 486.49 118.56 487.55 119.67 488.37C120.78 489.17 122.31 489.57 124.23 489.57C126.2 489.57 127.67 489.19 128.67 488.43C129.67 487.66 130.27 486.74 130.47 485.63C130.68 484.53 130.77 482.69 130.77 480.12V462.2H137.68V479.22C137.68 483.11 137.49 485.86 137.12 487.47C136.74 489.08 136.05 490.44 135.05 491.54C134.05 492.65 132.7 493.53 131.02 494.19C129.34 494.84 127.15 495.17 124.44 495.17C121.16 495.17 118.69 494.81 117 494.09C115.31 493.38 113.98 492.45 113 491.3C112.02 490.16 111.37 488.96 111.06 487.71C110.61 485.85 110.38 483.11 110.38 479.49V462.2H110.39Z" fill="white"/>
<path d="M152.68 494.62V467.68H142.53V462.2H169.73V467.68H159.6V494.62H152.68Z" fill="white"/>
<path d="M174.21 494.62V462.2H181.12V474.96H194.66V462.2H201.58V494.62H194.66V480.45H181.12V494.62H174.21Z" fill="white"/>
<path d="M251.09 494.62H243.58L240.59 487.25H226.9L224.07 494.62H216.74L230.07 462.2H237.38L251.09 494.62ZM238.37 481.79L233.65 469.76L229.03 481.79H238.37Z" fill="white"/>
<path d="M254.81 494.62V462.2H278.28V467.68H261.72V475.35H276V480.83H261.71V494.61L254.81 494.62Z" fill="white"/>
<path d="M283.99 494.62V462.2H298.54C302.2 462.2 304.86 462.48 306.51 463.07C308.17 463.65 309.5 464.69 310.49 466.18C311.49 467.67 311.98 469.37 311.98 471.29C311.98 473.73 311.22 475.74 309.72 477.32C308.21 478.91 305.95 479.91 302.95 480.32C304.44 481.14 305.68 482.05 306.65 483.04C307.62 484.03 308.93 485.78 310.58 488.3L314.76 494.63H306.49L301.49 487.57C299.71 485.05 298.5 483.46 297.85 482.81C297.19 482.15 296.5 481.7 295.77 481.45C295.04 481.21 293.88 481.08 292.29 481.08H290.89V494.62H283.99ZM290.91 475.91H296.02C299.34 475.91 301.41 475.78 302.23 475.51C303.05 475.25 303.7 474.79 304.17 474.14C304.64 473.5 304.87 472.68 304.87 471.71C304.87 470.62 304.56 469.74 303.95 469.07C303.33 468.4 302.47 467.98 301.34 467.8C300.78 467.72 299.1 467.69 296.29 467.69H290.9V475.91H290.91Z" fill="white"/>
<path d="M318.29 494.62V462.2H325.2V494.62H318.29Z" fill="white"/>
<path d="M353.69 482.7L360.39 484.71C359.36 488.25 357.65 490.88 355.26 492.6C352.87 494.31 349.84 495.17 346.17 495.17C341.63 495.17 337.89 493.7 334.96 490.75C332.04 487.81 330.57 483.79 330.57 478.69C330.57 473.29 332.04 469.11 334.98 466.12C337.92 463.13 341.79 461.64 346.59 461.64C350.78 461.64 354.18 462.81 356.79 465.16C358.35 466.54 359.51 468.54 360.29 471.13L353.45 472.67C353.04 470.99 352.2 469.66 350.91 468.69C349.63 467.71 348.07 467.23 346.24 467.23C343.7 467.23 341.64 468.1 340.06 469.81C338.48 471.54 337.69 474.33 337.69 478.19C337.69 482.29 338.47 485.21 340.02 486.95C341.57 488.69 343.6 489.56 346.09 489.56C347.93 489.56 349.51 489 350.83 487.9C352.17 486.81 353.12 485.07 353.69 482.7Z" fill="white"/>
<path d="M397.19 494.62H389.67L386.68 487.25H373L370.17 494.62H362.84L376.17 462.2H383.48L397.19 494.62ZM384.47 481.79L379.75 469.76L375.12 481.79H384.47Z" fill="white"/>
<path d="M486.56 180.45H466.67V198.9H488.84V204.44H460.06V153.26H487.7V158.8H466.67V174.97H486.56V180.45Z" fill="white"/>
<path d="M497.42 153.27H504.03V198.9H525.9V204.44H497.43V153.27H497.42Z" fill="white"/>
<path d="M559.76 180.45H539.87V198.9H562.04V204.44H533.26V153.26H560.9V158.8H539.87V174.97H559.76V180.45Z" fill="white"/>
<path d="M606.38 202.77C603.95 203.98 599.09 205.2 592.87 205.2C578.44 205.2 567.59 196.09 567.59 179.31C567.59 163.29 578.45 152.43 594.32 152.43C600.7 152.43 604.72 153.8 606.47 154.71L604.88 160.1C602.37 158.89 598.81 157.97 594.55 157.97C582.55 157.97 574.58 165.64 574.58 179.08C574.58 191.61 581.79 199.66 594.25 199.66C598.27 199.66 602.37 198.83 605.03 197.53L606.38 202.77Z" fill="white"/>
<path d="M626.5 158.89H610.93V153.27H648.82V158.89H633.18V204.45H626.5V158.89Z" fill="white"/>
<path d="M696.21 178.32C696.21 195.94 685.5 205.27 672.44 205.27C658.93 205.27 649.43 194.79 649.43 179.3C649.43 163.05 659.53 152.42 673.2 152.42C687.17 152.43 696.21 163.14 696.21 178.32ZM656.5 179.16C656.5 190.09 662.42 199.89 672.82 199.89C683.3 199.89 689.22 190.25 689.22 178.63C689.22 168.46 683.91 157.83 672.9 157.83C661.96 157.82 656.5 167.92 656.5 179.16Z" fill="white"/>
<path d="M704.79 153.95C708.13 153.27 712.91 152.89 717.47 152.89C724.53 152.89 729.09 154.18 732.28 157.07C734.86 159.35 736.3 162.84 736.3 166.79C736.3 173.55 732.05 178.03 726.66 179.85V180.08C730.61 181.45 732.96 185.09 734.18 190.41C735.85 197.55 737.07 202.48 738.13 204.46H731.3C730.46 203.02 729.33 198.61 727.88 192.24C726.36 185.18 723.63 182.52 717.63 182.29H711.4V204.46H704.79V153.95ZM711.4 177.26H718.16C725.22 177.26 729.7 173.39 729.7 167.54C729.7 160.93 724.92 158.05 717.93 157.97C714.74 157.97 712.46 158.27 711.4 158.58V177.26Z" fill="white"/>
<path d="M754.3 188.35L748.98 204.45H742.15L759.54 153.27H767.51L784.97 204.45H777.91L772.44 188.35H754.3ZM771.08 183.18L766.07 168.45C764.93 165.11 764.17 162.07 763.41 159.11H763.26C762.5 162.15 761.67 165.26 760.68 168.37L755.67 183.18H771.08Z" fill="white"/>
<path d="M792.49 153.27H799.1V198.9H820.97V204.44H792.5V153.27H792.49Z" fill="white"/>
<path d="M880.19 202.77C877.76 203.98 872.9 205.2 866.68 205.2C852.25 205.2 841.4 196.09 841.4 179.31C841.4 163.29 852.26 152.43 868.13 152.43C874.51 152.43 878.53 153.8 880.28 154.71L878.69 160.1C876.19 158.89 872.62 157.97 868.36 157.97C856.36 157.97 848.39 165.64 848.39 179.08C848.39 191.61 855.6 199.66 868.06 199.66C872.08 199.66 876.19 198.83 878.84 197.53L880.19 202.77Z" fill="white"/>
<path d="M930.61 178.32C930.61 195.94 919.9 205.27 906.84 205.27C893.33 205.27 883.83 194.79 883.83 179.3C883.83 163.05 893.93 152.42 907.6 152.42C921.58 152.43 930.61 163.14 930.61 178.32ZM890.9 179.16C890.9 190.09 896.82 199.89 907.22 199.89C917.7 199.89 923.62 190.25 923.62 178.63C923.62 168.46 918.31 157.83 907.3 157.83C896.37 157.82 890.9 167.92 890.9 179.16Z" fill="white"/>
<path d="M982.32 181.97C981.94 174.83 981.49 166.25 981.56 159.87H981.33C979.58 165.87 977.46 172.25 974.88 179.31L965.84 204.14H960.83L952.55 179.77C950.12 172.56 948.07 165.95 946.63 159.88H946.48C946.33 166.26 945.95 174.84 945.49 182.51L944.12 204.45H937.82L941.39 153.27H949.82L958.55 178.02C960.68 184.32 962.42 189.94 963.71 195.26H963.94C965.23 190.1 967.05 184.48 969.33 178.02L978.44 153.27H986.87L990.06 204.45H983.61L982.32 181.97Z" fill="white"/>
<path d="M1043.37 181.97C1042.99 174.83 1042.54 166.25 1042.61 159.87H1042.38C1040.63 165.87 1038.51 172.25 1035.93 179.31L1026.89 204.14H1021.88L1013.6 179.77C1011.17 172.56 1009.12 165.95 1007.68 159.88H1007.53C1007.38 166.26 1007 174.84 1006.54 182.51L1005.17 204.45H998.87L1002.44 153.27H1010.87L1019.6 178.02C1021.73 184.32 1023.47 189.94 1024.76 195.26H1024.99C1026.28 190.1 1028.1 184.48 1030.38 178.02L1039.49 153.27H1047.92L1051.11 204.45H1044.66L1043.37 181.97Z" fill="white"/>
<path d="M1067.9 153.27V204.45H1061.29V153.27H1067.9Z" fill="white"/>
<path d="M1078.53 196.39C1081.49 198.21 1085.82 199.73 1090.37 199.73C1097.13 199.73 1101.08 196.16 1101.08 191C1101.08 186.22 1098.35 183.48 1091.44 180.83C1083.09 177.87 1077.92 173.54 1077.92 166.33C1077.92 158.36 1084.53 152.44 1094.47 152.44C1099.71 152.44 1103.51 153.65 1105.78 154.95L1103.96 160.34C1102.29 159.43 1098.87 157.91 1094.24 157.91C1087.25 157.91 1084.6 162.09 1084.6 165.58C1084.6 170.36 1087.71 172.72 1094.77 175.45C1103.43 178.79 1107.83 182.97 1107.83 190.48C1107.83 198.38 1101.98 205.21 1089.91 205.21C1084.98 205.21 1079.58 203.77 1076.85 201.95L1078.53 196.39Z" fill="white"/>
<path d="M1115.97 196.39C1118.93 198.21 1123.26 199.73 1127.81 199.73C1134.57 199.73 1138.52 196.16 1138.52 191C1138.52 186.22 1135.79 183.48 1128.88 180.83C1120.53 177.87 1115.36 173.54 1115.36 166.33C1115.36 158.36 1121.97 152.44 1131.91 152.44C1137.15 152.44 1140.95 153.65 1143.22 154.95L1141.4 160.34C1139.73 159.43 1136.31 157.91 1131.68 157.91C1124.69 157.91 1122.04 162.09 1122.04 165.58C1122.04 170.36 1125.15 172.72 1132.21 175.45C1140.87 178.79 1145.27 182.97 1145.27 190.48C1145.27 198.38 1139.42 205.21 1127.35 205.21C1122.42 205.21 1117.02 203.77 1114.29 201.95L1115.97 196.39Z" fill="white"/>
<path d="M1160.92 153.27V204.45H1154.31V153.27H1160.92Z" fill="white"/>
<path d="M1216.2 178.32C1216.2 195.94 1205.49 205.27 1192.43 205.27C1178.92 205.27 1169.42 194.79 1169.42 179.3C1169.42 163.05 1179.52 152.42 1193.19 152.42C1207.16 152.43 1216.2 163.14 1216.2 178.32ZM1176.49 179.16C1176.49 190.09 1182.41 199.89 1192.81 199.89C1203.29 199.89 1209.21 190.25 1209.21 178.63C1209.21 168.46 1203.89 157.83 1192.89 157.83C1181.95 157.82 1176.49 167.92 1176.49 179.16Z" fill="white"/>
<path d="M1224.78 204.44V153.26H1231.99L1248.39 179.15C1252.19 185.15 1255.15 190.54 1257.58 195.78L1257.73 195.7C1257.12 188.87 1256.97 182.64 1256.97 174.67V153.26H1263.2V204.44H1256.52L1240.27 178.47C1236.7 172.78 1233.28 166.93 1230.7 161.39L1230.47 161.47C1230.85 167.92 1231 174.07 1231 182.58V204.45L1224.78 204.44Z" fill="white"/>
<path d="M1334.58 178.32C1334.58 195.94 1323.87 205.27 1310.81 205.27C1297.3 205.27 1287.8 194.79 1287.8 179.3C1287.8 163.05 1297.9 152.42 1311.57 152.42C1325.54 152.43 1334.58 163.14 1334.58 178.32ZM1294.87 179.16C1294.87 190.09 1300.79 199.89 1311.19 199.89C1321.67 199.89 1327.59 190.25 1327.59 178.63C1327.59 168.46 1322.28 157.83 1311.27 157.83C1300.33 157.82 1294.87 167.92 1294.87 179.16Z" fill="white"/>
<path d="M1343.16 153.27H1370.72V158.81H1349.76V175.82H1369.12V181.29H1349.76V204.45H1343.15L1343.16 153.27Z" fill="white"/>
<path d="M1395.32 196.39C1398.28 198.21 1402.61 199.73 1407.16 199.73C1413.92 199.73 1417.87 196.16 1417.87 191C1417.87 186.22 1415.14 183.48 1408.23 180.83C1399.88 177.87 1394.71 173.54 1394.71 166.33C1394.71 158.36 1401.32 152.44 1411.26 152.44C1416.5 152.44 1420.3 153.65 1422.57 154.95L1420.75 160.34C1419.08 159.43 1415.66 157.91 1411.03 157.91C1404.04 157.91 1401.39 162.09 1401.39 165.58C1401.39 170.36 1404.5 172.72 1411.56 175.45C1420.22 178.79 1424.62 182.97 1424.62 190.48C1424.62 198.38 1418.77 205.21 1406.7 205.21C1401.77 205.21 1396.37 203.77 1393.64 201.95L1395.32 196.39Z" fill="white"/>
<path d="M1477.41 178.32C1477.41 195.94 1466.7 205.27 1453.64 205.27C1440.13 205.27 1430.63 194.79 1430.63 179.3C1430.63 163.05 1440.73 152.42 1454.4 152.42C1468.37 152.43 1477.41 163.14 1477.41 178.32ZM1437.7 179.16C1437.7 190.09 1443.62 199.89 1454.02 199.89C1464.5 199.89 1470.42 190.25 1470.42 178.63C1470.42 168.46 1465.11 157.83 1454.1 157.83C1443.16 157.82 1437.7 167.92 1437.7 179.16Z" fill="white"/>
<path d="M1492.59 153.27V183.56C1492.59 195.03 1497.68 199.88 1504.51 199.88C1512.1 199.88 1516.96 194.87 1516.96 183.56V153.27H1523.64V183.11C1523.64 198.83 1515.36 205.28 1504.28 205.28C1493.8 205.28 1485.9 199.28 1485.9 183.41V153.27H1492.59Z" fill="white"/>
<path d="M1544.84 158.89H1529.27V153.27H1567.16V158.89H1551.52V204.45H1544.84V158.89Z" fill="white"/>
<path d="M1579.46 153.27V174.68H1604.21V153.27H1610.89V204.45H1604.21V180.46H1579.46V204.45H1572.85V153.27H1579.46Z" fill="white"/>
<path d="M1646.74 188.35L1641.42 204.45H1634.59L1651.98 153.27H1659.95L1677.41 204.45H1670.35L1664.88 188.35H1646.74ZM1663.52 183.18L1658.51 168.45C1657.37 165.11 1656.61 162.07 1655.85 159.11H1655.7C1654.94 162.15 1654.11 165.26 1653.12 168.37L1648.11 183.18H1663.52Z" fill="white"/>
<path d="M1684.93 153.27H1712.49V158.81H1691.53V175.82H1710.89V181.29H1691.53V204.45H1684.92L1684.93 153.27Z" fill="white"/>
<path d="M1721.91 153.95C1725.25 153.27 1730.03 152.89 1734.59 152.89C1741.65 152.89 1746.21 154.18 1749.4 157.07C1751.98 159.35 1753.42 162.84 1753.42 166.79C1753.42 173.55 1749.17 178.03 1743.78 179.85V180.08C1747.73 181.45 1750.08 185.09 1751.3 190.41C1752.97 197.55 1754.19 202.48 1755.25 204.46H1748.42C1747.59 203.02 1746.45 198.61 1745 192.24C1743.48 185.18 1740.75 182.52 1734.75 182.29H1728.52V204.46H1721.91V153.95ZM1728.52 177.26H1735.28C1742.34 177.26 1746.82 173.39 1746.82 167.54C1746.82 160.93 1742.04 158.05 1735.05 157.97C1731.86 157.97 1729.58 158.27 1728.52 158.58V177.26Z" fill="white"/>
<path d="M1769.37 153.27V204.45H1762.76V153.27H1769.37Z" fill="white"/>
<path d="M1816.68 202.77C1814.25 203.98 1809.39 205.2 1803.17 205.2C1788.74 205.2 1777.89 196.09 1777.89 179.31C1777.89 163.29 1788.75 152.43 1804.62 152.43C1811 152.43 1815.02 153.8 1816.77 154.71L1815.18 160.1C1812.68 158.89 1809.11 157.97 1804.85 157.97C1792.85 157.97 1784.88 165.64 1784.88 179.08C1784.88 191.61 1792.09 199.66 1804.55 199.66C1808.57 199.66 1812.68 198.83 1815.33 197.53L1816.68 202.77Z" fill="white"/>
<path d="M1833.54 188.35L1828.22 204.45H1821.39L1838.78 153.27H1846.75L1864.21 204.45H1857.15L1851.68 188.35H1833.54ZM1850.31 183.18L1845.3 168.45C1844.16 165.11 1843.4 162.07 1842.64 159.11H1842.49C1841.73 162.15 1840.9 165.26 1839.91 168.37L1834.9 183.18H1850.31Z" fill="white"/>
<path d="M486.56 271.57H466.67V290.02H488.84V295.56H460.06V244.38H487.7V249.92H466.67V266.09H486.56V271.57Z" fill="white"/>
<path d="M497.42 295.56V244.38H504.63L521.03 270.27C524.83 276.27 527.79 281.66 530.22 286.9L530.37 286.82C529.76 279.99 529.61 273.76 529.61 265.79V244.38H535.84V295.56H529.16L512.91 269.59C509.34 263.9 505.92 258.05 503.34 252.51L503.11 252.59C503.49 259.04 503.64 265.19 503.64 273.7V295.57H497.42V295.56Z" fill="white"/>
<path d="M546.47 287.52C549.43 289.34 553.76 290.86 558.31 290.86C565.07 290.86 569.02 287.29 569.02 282.13C569.02 277.35 566.29 274.61 559.38 271.96C551.03 269 545.87 264.67 545.87 257.46C545.87 249.49 552.48 243.56 562.42 243.56C567.66 243.56 571.46 244.77 573.73 246.07L571.91 251.46C570.24 250.55 566.82 249.03 562.19 249.03C555.2 249.03 552.55 253.21 552.55 256.7C552.55 261.48 555.66 263.84 562.72 266.57C571.38 269.91 575.78 274.09 575.78 281.6C575.78 289.5 569.93 296.33 557.86 296.33C552.92 296.33 547.53 294.89 544.8 293.07L546.47 287.52Z" fill="white"/>
<path d="M591.42 244.39V274.69C591.42 286.15 596.51 291.01 603.34 291.01C610.93 291.01 615.79 286 615.79 274.69V244.39H622.47V274.23C622.47 289.95 614.19 296.4 603.11 296.4C592.63 296.4 584.73 290.4 584.73 274.53V244.39H591.42Z" fill="white"/>
<path d="M633.95 245.07C637.29 244.39 642.07 244.01 646.63 244.01C653.69 244.01 658.25 245.3 661.44 248.19C664.02 250.47 665.46 253.96 665.46 257.91C665.46 264.67 661.21 269.15 655.82 270.97V271.2C659.77 272.57 662.12 276.21 663.34 281.53C665.01 288.67 666.23 293.6 667.29 295.58H660.46C659.63 294.14 658.49 289.73 657.04 283.36C655.52 276.3 652.79 273.64 646.79 273.41H640.56V295.58H633.95V245.07ZM640.55 268.38H647.31C654.37 268.38 658.85 264.51 658.85 258.66C658.85 252.05 654.07 249.17 647.08 249.09C643.89 249.09 641.61 249.39 640.55 249.7V268.38Z" fill="white"/>
<path d="M681.4 244.39V295.57H674.79V244.39H681.4Z" fill="white"/>
<path d="M692.95 295.56V244.38H700.16L716.56 270.27C720.36 276.27 723.32 281.66 725.75 286.9L725.9 286.82C725.29 279.99 725.14 273.76 725.14 265.79V244.38H731.37V295.56H724.69L708.44 269.59C704.87 263.9 701.45 258.05 698.87 252.51L698.64 252.59C699.02 259.04 699.17 265.19 699.17 273.7V295.57H692.95V295.56Z" fill="white"/>
<path d="M781.86 293.29C778.9 294.35 773.05 296.1 766.14 296.1C758.4 296.1 752.02 294.13 747.01 289.34C742.61 285.09 739.87 278.25 739.87 270.28C739.95 255.02 750.42 243.86 767.58 243.86C773.5 243.86 778.13 245.15 780.34 246.21L778.75 251.6C776.02 250.39 772.6 249.4 767.44 249.4C754.99 249.4 746.86 257.14 746.86 269.98C746.86 282.96 754.68 290.63 766.6 290.63C770.93 290.63 773.89 290.02 775.41 289.26V274H765V268.69H781.86V293.29Z" fill="white"/>
<path d="M808.06 244.39H835.62V249.93H814.66V266.94H834.02V272.41H814.66V295.57H808.05V244.39H808.06Z" fill="white"/>
<path d="M845.04 245.07C848.38 244.39 853.16 244.01 857.72 244.01C864.78 244.01 869.34 245.3 872.53 248.19C875.11 250.47 876.55 253.96 876.55 257.91C876.55 264.67 872.3 269.15 866.91 270.97V271.2C870.86 272.57 873.21 276.21 874.43 281.53C876.1 288.67 877.32 293.6 878.38 295.58H871.55C870.72 294.14 869.58 289.73 868.13 283.36C866.61 276.3 863.88 273.64 857.88 273.41H851.65V295.58H845.04V245.07ZM851.64 268.38H858.4C865.46 268.38 869.94 264.51 869.94 258.66C869.94 252.05 865.16 249.17 858.17 249.09C854.98 249.09 852.7 249.39 851.64 249.7V268.38Z" fill="white"/>
<path d="M912.39 271.57H892.5V290.02H914.67V295.56H885.89V244.38H913.53V249.92H892.5V266.09H912.39V271.57Z" fill="white"/>
<path d="M949.75 271.57H929.86V290.02H952.03V295.56H923.25V244.38H950.89V249.92H929.86V266.09H949.75V271.57Z" fill="white"/>
<path d="M984.98 279.47L979.66 295.57H972.83L990.22 244.39H998.19L1015.65 295.57H1008.59L1003.12 279.47H984.98ZM1001.76 274.3L996.75 259.57C995.61 256.23 994.85 253.19 994.09 250.23H993.94C993.18 253.27 992.35 256.38 991.36 259.49L986.35 274.3H1001.76Z" fill="white"/>
<path d="M1023.18 295.56V244.38H1030.39L1046.79 270.27C1050.59 276.27 1053.55 281.66 1055.98 286.9L1056.13 286.82C1055.52 279.99 1055.37 273.76 1055.37 265.79V244.38H1061.6V295.56H1054.92L1038.67 269.59C1035.1 263.9 1031.68 258.05 1029.1 252.51L1028.87 252.59C1029.25 259.04 1029.4 265.19 1029.4 273.7V295.57H1023.18V295.56Z" fill="white"/>
<path d="M1073.14 245.07C1077.16 244.46 1081.95 244.01 1087.19 244.01C1096.68 244.01 1103.44 246.21 1107.92 250.39C1112.48 254.57 1115.13 260.49 1115.13 268.76C1115.13 277.11 1112.55 283.95 1107.76 288.65C1102.98 293.43 1095.08 296.02 1085.13 296.02C1080.42 296.02 1076.47 295.79 1073.13 295.41V245.07H1073.14ZM1079.75 290.32C1081.42 290.62 1083.85 290.7 1086.43 290.7C1100.55 290.7 1108.22 282.8 1108.22 268.98C1108.3 256.91 1101.46 249.24 1087.49 249.24C1084.07 249.24 1081.49 249.54 1079.74 249.92L1079.75 290.32Z" fill="white"/>
<path d="M1139.81 244.39H1167.37V249.93H1146.41V266.94H1165.77V272.41H1146.41V295.57H1139.8L1139.81 244.39Z" fill="white"/>
<path d="M1179.14 279.47L1173.82 295.57H1167L1184.39 244.39H1192.36L1209.82 295.57H1202.76L1197.29 279.47H1179.14ZM1195.92 274.3L1190.91 259.57C1189.77 256.23 1189.01 253.19 1188.25 250.23H1188.1C1187.34 253.27 1186.51 256.38 1185.52 259.49L1180.51 274.3H1195.92Z" fill="white"/>
<path d="M1223.95 244.39V295.57H1217.34V244.39H1223.95Z" fill="white"/>
<path d="M1235.49 245.07C1238.83 244.39 1243.61 244.01 1248.17 244.01C1255.23 244.01 1259.79 245.3 1262.98 248.19C1265.56 250.47 1267 253.96 1267 257.91C1267 264.67 1262.75 269.15 1257.36 270.97V271.2C1261.31 272.57 1263.66 276.21 1264.88 281.53C1266.55 288.67 1267.77 293.6 1268.83 295.58H1262C1261.16 294.14 1260.03 289.73 1258.58 283.36C1257.06 276.3 1254.33 273.64 1248.33 273.41H1242.1V295.58H1235.49V245.07ZM1242.09 268.38H1248.85C1255.91 268.38 1260.39 264.51 1260.39 258.66C1260.39 252.05 1255.61 249.17 1248.62 249.09C1245.43 249.09 1243.15 249.39 1242.09 249.7V268.38Z" fill="white"/>
<path d="M1318.94 271.57H1299.05V290.02H1321.22V295.56H1292.44V244.38H1320.08V249.92H1299.05V266.09H1318.94V271.57Z" fill="white"/>
<path d="M1329.8 244.39H1336.41V290.02H1358.28V295.56H1329.81V244.39H1329.8Z" fill="white"/>
<path d="M1392.13 271.57H1372.24V290.02H1394.41V295.56H1365.63V244.38H1393.27V249.92H1372.24V266.09H1392.13V271.57Z" fill="white"/>
<path d="M1438.76 293.89C1436.33 295.1 1431.47 296.32 1425.25 296.32C1410.82 296.32 1399.97 287.21 1399.97 270.43C1399.97 254.41 1410.83 243.55 1426.7 243.55C1433.08 243.55 1437.1 244.92 1438.85 245.83L1437.26 251.22C1434.76 250.01 1431.19 249.09 1426.93 249.09C1414.93 249.09 1406.96 256.76 1406.96 270.2C1406.96 282.73 1414.17 290.78 1426.63 290.78C1430.65 290.78 1434.76 289.95 1437.41 288.65L1438.76 293.89Z" fill="white"/>
<path d="M1458.88 250.01H1443.31V244.39H1481.2V250.01H1465.56V295.57H1458.88V250.01Z" fill="white"/>
<path d="M1493.5 244.39V295.57H1486.89V244.39H1493.5Z" fill="white"/>
<path d="M1548.78 269.44C1548.78 287.06 1538.07 296.39 1525.01 296.39C1511.5 296.39 1502 285.91 1502 270.42C1502 254.17 1512.1 243.54 1525.77 243.54C1539.75 243.55 1548.78 254.26 1548.78 269.44ZM1509.07 270.28C1509.07 281.21 1514.99 291.01 1525.39 291.01C1535.87 291.01 1541.79 281.37 1541.79 269.75C1541.79 259.58 1536.48 248.95 1525.47 248.95C1514.54 248.94 1509.07 259.04 1509.07 270.28Z" fill="white"/>
<path d="M1557.37 295.56V244.38H1564.58L1580.98 270.27C1584.78 276.27 1587.74 281.66 1590.17 286.9L1590.32 286.82C1589.71 279.99 1589.56 273.76 1589.56 265.79V244.38H1595.79V295.56H1589.11L1572.86 269.59C1569.29 263.9 1565.87 258.05 1563.29 252.51L1563.06 252.59C1563.44 259.04 1563.59 265.19 1563.59 273.7V295.57H1557.37V295.56Z" fill="white"/>
<path d="M1606.42 287.52C1609.38 289.34 1613.71 290.86 1618.26 290.86C1625.02 290.86 1628.97 287.29 1628.97 282.13C1628.97 277.35 1626.24 274.61 1619.33 271.96C1610.98 269 1605.82 264.67 1605.82 257.46C1605.82 249.49 1612.43 243.56 1622.37 243.56C1627.61 243.56 1631.41 244.77 1633.68 246.07L1631.86 251.46C1630.19 250.55 1626.77 249.03 1622.14 249.03C1615.15 249.03 1612.5 253.21 1612.5 256.7C1612.5 261.48 1615.61 263.84 1622.67 266.57C1631.33 269.91 1635.73 274.09 1635.73 281.6C1635.73 289.5 1629.88 296.33 1617.81 296.33C1612.87 296.33 1607.48 294.89 1604.75 293.07L1606.42 287.52Z" fill="white"/>
<defs>
<filter id="filter0_d_218_2" x="229.372" y="214.482" width="155.263" height="135.963" filterUnits="userSpaceOnUse" color-interpolation-filters="sRGB">
<feFlood flood-opacity="0" result="BackgroundImageFix"/>
<feColorMatrix in="SourceAlpha" type="matrix" values="0 0 0 0 0 0 0 0 0 0 0 0 0 0 0 0 0 0 127 0" result="hardAlpha"/>
<feOffset dy="4"/>
<feGaussianBlur stdDeviation="2"/>
<feComposite in2="hardAlpha" operator="out"/>
<feColorMatrix type="matrix" values="0 0 0 0 0 0 0 0 0 0 0 0 0 0 0 0 0 0 0.25 0"/>
<feBlend mode="normal" in2="BackgroundImageFix" result="effect1_dropShadow_218_2"/>
<feBlend mode="normal" in="SourceGraphic" in2="effect1_dropShadow_218_2" result="shape"/>
</filter>
</defs>
</svg>
