<?xml version="1.0" encoding="utf-8"?>
<!-- Generator: Adobe Illustrator 23.0.3, SVG Export Plug-In . SVG Version: 6.00 Build 0)  -->
<svg version="1.1" xmlns="http://www.w3.org/2000/svg" xmlns:xlink="http://www.w3.org/1999/xlink" x="0px" y="0px"
	 viewBox="0 0 1873.16 516" style="enable-background:new 0 0 1873.16 516;" xml:space="preserve">
<style type="text/css">
	.st0{fill:none;stroke:#0047BA;stroke-width:4;stroke-miterlimit:10;}
	.st1{fill:#FFFFFF;}
	.st2{fill:#0047BA;}
	.st3{fill:none;stroke:#FFFFFF;stroke-width:2;stroke-miterlimit:10;}
	.st4{fill:#0047BA;stroke:#FFFFFF;stroke-miterlimit:10;}
</style>
<g id="Layer_4">
</g>
<g id="Layer_5">
	<line class="st0" x1="217.98" y1="424.63" x2="217.98" y2="194.73"/>
</g>
<g id="Layer_1">
	<g>
		<g>
			<polygon class="st1" points="43,140.48 215.94,196.42 215.94,424.63 43,353.61 			"/>
			<polygon class="st1" points="392.95,140.48 220.04,196.42 220.04,424.63 392.95,353.61 			"/>
			<polygon class="st2" points="218,82.34 392.95,140.48 217.99,197.07 43,140.48 			"/>
			<path class="st2" d="M75.77,158.13c0.32,0.15,1.02,1.28,1.36,1.76c0.22,0.15,0.45,0.18,0.7,0.24v0.3
				c0.62,0.74,5.12,1.79,5.12,3.05c0.1,0.03,0.21,0.03,0.36,0.09c0.13,0.09,0.23,0.09,0.33,0.12c0.12-0.21,0.26-0.46,0.37-0.74
				c0.32,0.16,1.02-0.04,1.33,0.07c0.19-0.27,0.27-0.5,0.37-0.76c1.37,0.45,3.06,0.56,4.17,0.88c0.08-0.09,0.19-0.2,0.32-0.33v-0.4
				c0.1-0.04,0.25-0.15,0.37-0.31c1.33,0.49,2.78,0.91,4.15,1.37c0-0.42,0.68-1.02,0.68-1.47c1.04,0.36,5.22,2.5,5.96,2.32v-0.38
				c0.18,0.05,0.41,0.15,0.69,0.19c0-0.8,0.29,0.14,0.29-0.71c0.39,0.08,0.72,0.23,1.07,0.39c0.11,0.13,0.23,0.32,0.4,0.51
				c0.24,0.18,0.61,0.4,0.85,0.63c1.01,0.2,1.97,0.41,2.9,0.62c0.19-0.11,0.26-0.21,0.39-0.37c1.26,0.42,2.63,0.88,3.88,1.29
				c0.13,0.17,0.25,0.35,0.4,0.54v0.84c0.08,0,0.2,0.03,0.3,0.11c0.76,1.51-1.07,5.14-1.76,4.94v2.16c0.14,0.14,0.23,0.3,0.38,0.45
				c0.11,0.22,0.22,0.41,0.31,0.59c0.5,0.15,0.97,0.32,1.44,0.51c0.39,0.51,1.78,1.8,1.78,2.25c2.14,0.65,5.65,2.71,8.16,3.51
				c0.12,0.19,0.25,0.33,0.36,0.56v0.36c0.1,0.08,0.25,0.13,0.35,0.16c0.1,0.16,0.21,0.37,0.36,0.53c0,0.46,0.42,1.44,0.42,2.31
				c0.07,0.19,0.19,0.36,0.29,0.45c0.13,0.26,0.22,0.41,0.42,0.55c0.65,0.21,1.72,0.99,2.48,1.26v-0.43v-0.4
				c0.46,0.14,0.95,0.32,1.4,0.46v0.4c0.5,0.32,0.94,0.6,1.47,0.93c0.09,0.13,0.21,0.35,0.34,0.5v0.44c0.08,0.2,0.25,0.33,0.38,0.57
				c0.17,0.05,0.45,0.15,0.64,0.19v0.44c0.75,0.66,2.18,0.3,2.55,0.42c0.14-0.12,0.23-0.24,0.33-0.34c0-0.39,0.39-1.13,0.77-1.02
				v-2.99c0.36,0.14,2.45,0,2.83,0.1v-0.42c0.72,0.22,1.46,0.46,2.21,0.71c0.21,0.34,0.47,0.69,0.71,1.07
				c0.13,0.07,0.24,0.07,0.32,0.12c0.12,0.05,0.27,0.11,0.38,0.11c0,0.9,0.42,0.18,0.42,1c0.06,0.05,0.17,0.05,0.37,0.11
				c0.07,0.03,0.17,0.09,0.29,0.14c0.27,0.37,0.46,0.73,0.74,1.08c1.21,0.42,2.39,0.82,3.61,1.18c0,1.27,8.05,5.23,9.53,5.72v-0.89
				c0.13,0.04,0.2,0.1,0.37,0.16v-0.9c2.21,0.73,4.39,1.47,6.6,2.19v0.44v0.42c0.71,0.25,0,0.47,0.71,0.68v2.63
				c-0.32-0.15-0.32,0.73-1.07,0.45c-0.18,0.13-0.28,0.22-0.38,0.32c-0.16,0.13-0.26,0.22-0.37,0.33c0.37,0.13,0.74,0.69,1.49,0.9
				c0,0.47,1.81,2.36,2.19,2.45c0.09,0.21,0.28,0.39,0.36,0.58c0.13,0.21,0.25,0.39,0.37,0.59c0,0.45,0.37,1.44,0.37,2.28
				c0.78,0.22,0.78,1.53,0.78,1.97c0.09,0.05,0.24,0.1,0.33,0.14c0.75,1.54,0.42,4.87,1.15,6.45c0.09,0.06,0.19,0.1,0.37,0.15v0.83
				c0.37,0.57,1.49,2.25,1.87,2.38c0.07,0.17,0.24,0.35,0.35,0.56c0.11,0.16,0.22,0.4,0.38,0.53v3.97c0.12,0.17,0.19,0.33,0.37,0.56
				c0.1,0,0.21,0.03,0.36,0.1c0.13,0.08,0.21,0.08,0.38,0.11c0,0.86,0.36,0.17,0.36,0.97c0.25,0.28,0.51,0.5,0.78,0.69v1.36
				c0.08,0,0.2,0.08,0.31,0.12c0.43,0.59,0.43,3.16,0.43,4.07c0.11,0.17,0.21,0.35,0.37,0.5c0.11,0.21,0.23,0.45,0.37,0.59
				c0.1,0.06,0.23,0.14,0.39,0.17c0.09,0,0.19,0.02,0.36,0.13c0.13,0.2,0.19,0.32,0.31,0.51v0.43c0.18,0.25,0.29,0.42,0.45,0.63
				c0.07,0,0.2,0.04,0.36,0.07c0.13,0.04,0.19,0.14,0.38,0.2v0.39v0.41c0.37,0.14,0.71,1.58,0.71,2c1.16,0.4,0.78,6.35,0.78,7.26
				c0.38,0.56,1.48,1.81,1.82,2c0,0.83,0.76,1.1,0.76,1.1v0.41c0.37,0.56,2.28,2.11,2.28,2.52c0.37,0.18,1.51,1.42,1.51,1.89
				c0.1,0,0.2,0.05,0.37,0.09c0.1,0.07,0.24,0.11,0.35,0.18c0.14,0.32,0.24,0.63,0.37,1.01c0.76,0.23,1.53,1.77,2.28,2.04
				c0.09,0.23,0.26,0.36,0.38,0.59v2.13c-0.29,0.11-0.5,0.19-0.77,0.23v0.45v0.37c0.39,0.16,0.77,0.7,1.13,0.84
				c0.13,0.23,0.27,0.43,0.4,0.63c0,0.82,0.75,1.15,0.75,1.54c0.29,0.13,0.49,0.15,0.77,0.29v0.45c0.72,0.66,10.24,4.02,11.02,3.88
				v-0.45c0.38,0.12,0.72,0.22,1.11,0.38v-0.38c0.38,0.06,0.74,0.22,1.17,0.34c0-0.83,1.49-1.18,1.49-1.64
				c0.28,0.07,0.55,0.19,0.77,0.29v-0.43c0.67,0.21,1.3,0.43,1.96,0.62v5.33c-0.37,0.27-1.19,1.34-1.19,1.83
				c-0.77-0.25,0,0.42-0.77,0.13v0.46v0.49c-0.77-0.36,0,0.39-0.77,0.14v0.36v0.5c-0.75-0.24-1.49,2.95-2.22,2.71v0.43v0.45
				c-0.82-0.25,0,0.42-0.82,0.19v0.88c-0.14-0.05-0.26-0.11-0.34-0.13v0.87c-0.31,0.17-0.54,0.44-0.83,0.57V287
				c-0.13-0.04-0.21-0.09-0.33-0.09v0.43v0.44c-0.13-0.09-0.29-0.09-0.41-0.09v0.8c-0.2,0.11-0.48,0.19-0.73,0.24v0.4v0.45
				c-0.8-0.32-0.8,1.01-1.53,0.75c0,0.87-1.14,0.87-1.14,1.73c-0.74-0.23,0,0.46-0.74,0.23c0,0.44-0.76,1.45-1.18,1.37
				c0,0.39-0.38,0.71-0.77,0.57c0,0.91-0.34-0.17-0.34,0.7c-0.37-0.15-1.15,0.54-1.49,0.35c0,0.9-0.44-0.12-0.44,0.7
				c-0.75-0.22-2.59,0.41-2.99,0.72v0.43c0,0-0.73-0.26-0.73,0.62c-0.42-0.19-1.93,0.95-1.93,1.43c-0.76-0.31-1.13,0.92-1.48,1.24
				c-0.18-0.08-0.27-0.11-0.37-0.13c-0.18,0.35-0.28,0.75-0.38,1.19c-0.14-0.05-0.25-0.12-0.33-0.2c0,0-1.17,1.31-1.17,1.83
				c-0.78-0.33,0,0.37-0.78,0.09c0,0.45-0.37,0.8-0.37,1.19c-0.76-0.25,0,0.46-0.76,0.16c0,0.39-1.47,1.64-1.47,1.64v0.42v0.46
				c-1.9,0.15-0.74,3.21-1.47,4.21c-0.13-0.05-0.29-0.09-0.43-0.14v1.3c0.43,0.14,0.78,1.16,0.78,1.59c0.1,0.2,0.26,0.37,0.38,0.6
				c0.07,0,0.26,0.05,0.39,0.11c0.1,0.07,0.26,0.13,0.34,0.17v8.73c0.36,0.14,0.71,0.72,1.08,0.83c0.2,0.22,0.31,0.43,0.38,0.6
				c0,3.02-1.81,11.47-0.67,14.13c0.11,0.04,0.2,0.09,0.34,0.14v3.05c-0.14,0.12-0.23,0.2-0.34,0.32c-0.34-0.12-0.53-0.2-0.8-0.32
				v0.42c-0.74,0.19-4.11-0.27-5.23-0.67c0,0.4-1.1,0.4-1.5,0.25c0,0-1.12,0.88-1.48,0.72c0,0.46-0.37,0.73-0.76,0.61
				c0,0.43-0.73,1.03-0.73,1.44c-0.24-0.14-0.48-0.2-0.74-0.34v0.46c-0.1-0.04-0.27-0.08-0.38-0.12c-0.1-0.05-0.26-0.14-0.37-0.17
				v0.45c-0.2-0.15-0.47-0.23-0.77-0.27c-0.13,0.09-0.25,0.12-0.33,0.27v3.47c0.2,0.26,0.44,0.48,0.77,0.74v0.46v0.44
				c0.7,0.25,0,0.4,0.7,0.71c0,0.41,0.38,0.99,0.74,1.6v5.57c-0.14,0.15-0.27,0.26-0.36,0.35c-0.38-0.16-0.74,0.12-0.74,0.53
				c-0.37,0.04-0.77,0.04-1.09,0.04v0.45c-0.42,0.25-1.85-0.34-2.22-0.49c-0.13,0.13-0.27,0.19-0.36,0.32v0.8
				c-0.77-0.25-1.14,6.53-1.14,7.4c-0.15,0.11-0.25,0.19-0.37,0.31h-1.12v0.4c-0.36,0.31-1.42-0.17-2.17-0.47
				c-0.16,0.3-0.28,0.54-0.44,0.75c-0.31-0.16-0.68,0.57-1.04,0.41c0,0.45-0.38,1.18-0.38,1.56c-0.75-0.3-0.75,2.33-1.44,2v1.34
				c-0.45,0.27-1.14,1.25-1.51,1.59v0.38v0.45c-0.35-0.14-0.73,0.56-0.73,1.02c-0.11,0.05-0.29,0.2-0.37,0.21
				c-0.13,0.13-0.28,0.24-0.38,0.32c-0.38-0.13-1.46,0.3-1.46,0.3v0.42c-0.36,0.25-1.43-0.18-1.84-0.35v0.46
				c-0.58-0.25-1.19-0.49-1.82-0.75v0.37c-1.43,0.34-4.74-0.15-6.54-0.92c-0.38-0.55-1.41-1.8-1.41-2.29
				c-1.46-0.6-3.32-1.3-4.42-0.88v0.38h-1.07v0.42c-0.4-0.15-1.03,0-1.03,0.84c-0.2,0.11-0.28,0.25-0.36,0.31
				c-1.1-0.47-2.23-1.33-2.91-2.49c-0.24-0.13-0.46-0.16-0.75-0.27v-0.34c-0.36-0.23-0.64-0.38-1.02-0.54v-0.44
				c-0.44-0.15-0.74-0.32-1.07-0.42v1.65c0-0.8-0.37-2.26-0.37-3.07c0.7,0.28,0-0.43,0.7-0.15v-2.1c-0.7-0.31,0-0.46-0.7-0.75
				c0-0.42,0.37-1.54,0.7-1.42v-1.26c0.14,0.09,0.22,0.14,0.4,0.2v-1.74c-0.18-0.21-0.26-0.4-0.4-0.61
				c-0.33-0.31-0.7-0.58-1.07-0.81v-0.47c-0.37-0.28-0.73-0.53-1.05-0.83c0-0.44-0.35-1.04-0.74-1.18
				c-0.13-0.15-0.26-0.35-0.37-0.58c0-0.41-0.29-1.84-0.29-2.26c-0.18-0.06-0.29-0.09-0.38-0.09c0-0.49-0.4-2.31-0.68-2.83
				c-0.16-0.06-0.28-0.14-0.37-0.18c-0.42-0.56-0.7-2.38-1.12-2.99c-0.15,0-0.26-0.09-0.36-0.12c-1.07-1.72-0.35-4.87-1.07-6.47
				c-0.13-0.03-0.25-0.09-0.38-0.09v-2.16c-0.1-0.05-0.19-0.05-0.31-0.11c-1.46-3.06-1.46-8.68-2.83-11.81
				c-0.21-0.04-0.28-0.07-0.41-0.13c-0.1-0.55-0.21-1.19-0.31-1.86c-0.76-0.23,0-0.33-0.76-0.63v-0.87
				c-0.12-0.05-0.27-0.13-0.38-0.18v-0.79c-0.27-0.14-0.66-1.54-1-1.75v-0.8c-0.16-0.05-0.27-0.12-0.39-0.16
				c0-0.38-0.37-2.28-0.37-2.71c-0.12,0-0.2-0.06-0.38-0.06c-1.36-3.51,2.86-14.64,5.01-13.84v-3.78c-0.67-0.24,0-0.5-0.67-0.71
				c0-0.46-0.35-0.97-0.35-1.39c-0.71-0.24,0-0.48-0.71-0.74c0-1.67-0.41-4.37-0.41-6.01c-0.35-0.58-0.73-1.22-0.73-1.6
				c-0.08-0.12-0.21-0.29-0.27-0.52c-0.14-0.04-0.3-0.1-0.39-0.18v-0.4c-0.11-0.03-0.23-0.12-0.34-0.12
				c-0.16-0.21-0.27-0.34-0.39-0.57v-1.22c-0.1-0.08-0.25-0.11-0.37-0.19v-0.41v-0.39c-0.12-0.11-0.2-0.11-0.38-0.11
				c0-0.49-0.28-2.33-0.28-2.76c-0.12,0-0.25-0.05-0.34-0.11c-0.36-0.99-0.73-4.92-0.73-5.76c-0.71-0.28,0-0.45-0.71-0.73
				c0-0.38-0.67-1.49-0.67-1.94c-0.27-0.22-0.54-0.45-0.77-0.65v-0.44v-0.51c-0.69-0.21,0-0.39-0.69-0.62
				c0-0.44-0.38-0.96-0.38-1.37c-0.11-0.22-0.23-0.41-0.31-0.6c-0.16-0.06-0.27-0.12-0.37-0.12v-0.4c-0.13-0.05-0.23-0.09-0.33-0.15
				v-0.45c-0.17-0.04-0.26-0.07-0.37-0.16c-0.11-0.14-0.21-0.29-0.31-0.5v-2.91c0.31,0.09,0.68-0.63,0.68-1.04
				c0.33,0.1,0.7-0.21,0.7-0.61c0.69,0.29,0-0.42,0.69-0.15c0-1.26,0.38-5.34,0-6.29c-0.08-0.02-0.27-0.1-0.32-0.1v-0.86
				c-0.17-0.21-0.29-0.35-0.37-0.59c-0.16-0.07-0.27-0.07-0.37-0.11v-0.42c-0.13-0.16-0.23-0.35-0.33-0.55
				c-0.48-0.33-0.96-0.62-1.43-0.9v-0.45c-1.39-1.33-5.22-2.31-6.98-2.93c0-0.41-0.37-1.02-0.67-1.1v-0.85
				c-0.17-0.04-0.29-0.11-0.4-0.11v-0.48v-0.25c-0.09-0.17-0.27-0.17-0.37-0.25v-1.28c-0.14-0.15-0.19-0.35-0.32-0.51
				c-0.1-0.09-0.3-0.11-0.37-0.15v-0.42c-0.1-0.19-0.22-0.39-0.32-0.54c-0.27-0.1-0.5-0.18-0.69-0.28v-0.41
				c-1.41-1.33-5.95-1.22-7.28-1.8c0,0.84-0.37-0.12-0.37,0.76c-0.14-0.09-0.31-0.09-0.38-0.19c-0.14,0-0.24,0-0.32-0.11
				c0,0.86-0.31-0.12-0.31,0.74c-0.43-0.13-1.49-0.08-1.49,0.3c-0.2-0.08-0.4-0.14-0.63-0.29v0.54c-1.03,0.4-4.13-0.69-5.89-1.32
				c0-0.46-0.31-1.37-0.31-2.22c-0.2-0.38-0.51-0.68-0.68-1.12c-0.7-0.22-3.12-1.53-3.4-1.2v0.41c-0.23-0.1-0.5-0.17-0.7-0.27
				c0,0.41-0.73,0.18-0.73,1c-0.08,0.12-0.19,0.22-0.29,0.31c-0.12-0.01-0.28-0.09-0.36-0.09v0.35c-0.11,0-0.26-0.02-0.32-0.06v0.3
				c-0.1,0.05-0.25,0.05-0.36,0v0.42c-0.08-0.04-0.26-0.08-0.36-0.18c-0.11,0.14-0.21,0.23-0.32,0.33
				c-0.09,0.24-0.21,0.49-0.29,0.69c-3.44-1.2-6.5-6.89-8.84-7.72c-0.17-0.22-0.29-0.36-0.38-0.53v-0.43
				c-0.09-0.19-0.22-0.36-0.3-0.51c-0.36-0.15-1.74-2.22-1.74-2.68c-0.08-0.2-0.18-0.37-0.31-0.55c-0.17-0.16-0.25-0.35-0.38-0.55
				c-0.32-0.12-0.62-0.59-1.01-0.74c-0.09-0.21-0.21-0.34-0.32-0.56c-0.21-1.04-0.4-2.09-0.68-3.11c-0.12-0.07-0.22-0.09-0.32-0.2
				v-0.76c-0.32-0.16-1.01-1.23-1.01-1.62c-0.68-0.23-1.29-1.74-2.04-1.93c-0.13-0.32-0.23-0.62-0.33-0.97
				c-0.09-0.03-0.19-0.1-0.3-0.15c0,0,0-0.79-0.67-1.06c-0.13-0.14-0.25-0.34-0.33-0.53v-0.4c-0.16-0.17-0.28-0.31-0.39-0.53
				c-0.65-0.23-1.63-2.23-2.34-2.46c-0.13-2.63-0.21-5.33-0.3-7.96c-0.23-0.08-0.47-0.14-0.64-0.24v-0.39
				c-0.39-0.13-0.71-0.25-1-0.36v-0.47v-0.26c0.3,0,0.61-0.32,0.61-0.66c0.39,0.08,0.71-0.24,0.71-0.67
				c0.99,0.38,0.61-1.84,0.99-2.07c0.11,0.03,0.22,0.03,0.34,0.1c0.99-1.75,0-7.88,0-9.87c-0.11-0.24-0.23-0.41-0.34-0.54
				c-0.37-0.15-0.99-1.21-1.31-1.31v-2.07c0.32,0.14,0.94-1.28,1.31-1.22c0-2.87,2.98-3.93,2.98-5.98c0.16-0.1,0.27-0.18,0.39-0.33
				c0.12,0.09,0.21,0.15,0.3,0.15c0.1-0.15,0.2-0.19,0.39-0.28c0-0.8,0.33-1.96,0.33-2.78c0.35,0.1,2.02-0.53,2.02-0.95
				c0.09,0,0.2,0.03,0.31,0.09c0.11,0,0.2,0.05,0.32,0.13c0.1-0.13,0.2-0.22,0.37-0.33v-0.43c0.11,0.05,0.23,0.12,0.33,0.12v-0.39
				c0.1,0,0.2,0.05,0.31,0.13v-0.45c0.12,0,0.23,0.03,0.39,0.14v-0.48c0.07,0.07,0.21,0.15,0.32,0.15v-0.44
				c0.12,0.06,0.21,0.11,0.38,0.11v-0.35c0,0,0.15,0.04,0.29,0.12c0.07-0.12,0.23-0.2,0.32-0.32c0-0.46,0.31-0.78,0.65-0.62
				c0-0.82,0.38,0.15,0.38-0.74c1.01,0.36,1.7-1.08,2.7-0.77c0.09-0.04,0.21-0.13,0.32-0.28v-0.39c0.12,0,0.21,0.07,0.37,0.13
				c0.06-0.13,0.21-0.23,0.31-0.35v-2.89c-0.1-0.02-0.19-0.07-0.31-0.07v-2.11c0.21-0.05,0.43-0.07,0.67-0.13
				c0.17-0.14,0.17-0.23,0.32-0.36v-0.4c0.15,0.07,0.25,0.07,0.34,0.1c0.12-0.1,0.19-0.2,0.37-0.32v-1.18c0.65-0.65,2.03-1,3.35-0.6
				c0-0.82,2.1-0.16,2.1-1.43c0.62,0.22,0-0.41,0.62-0.19v-0.41v-0.35c0.36-0.35,1.4-1.72,1.4-2.57
				C75.28,158.58,75.54,158.38,75.77,158.13"/>
			<path class="st2" d="M160.31,206.76c-1.07-0.59-2.3-0.92-3.58-1.5l2.91-2.33c-4.67-1.6-10.11-3.65-13.91-6.93
				c-0.91-0.88-2.77-1.2-3.98-1.64l-3.2-3.29l-3.34,4.39l-1.3-0.22c-3.03,0.12-4.6-1.06-6.13-3.5c-1.59-0.11-2.36-0.72-3.69-1.39
				c-1.97-1-2.59-2.27-2.98-4.4l-1.02-0.34v-0.96c-2.71-1.16-5.14-2.41-7.91-3.39l-1.12-2.01c-4.17-1.36-3.4-5.56-3.4-9.36
				l1.39-0.03v-1.03l-0.29-0.07l-0.14,0.11c-1.77-0.26-4.71-0.58-6.08-1.61c-1.85,0.61-3.52-0.2-5.18-0.97l-0.19,1.27l-5.55-1.81
				l-0.95,0.94c-1.12-0.35-2.09-0.59-3.15-0.84l-0.32,0.73l-1.27-0.29l-0.61,1.3c-1.71-0.58-3.32-1.16-5.08-1.74l-0.15-0.94
				c-1.07-0.46-2.18-0.84-3.26-1.33L73.52,166l-0.61,1.58l-2.16-0.71v0.18l-0.72,0.53v0.05l-0.67,0.52v5.09
				c-1.23,1.04-2.01,1.71-3.08,2.86l-1.08-0.28c-1.48,0.88-2.69,2.1-3.95,3.32h-0.03l-1.76,1.54l-0.54-0.18l-0.05,1.75l-3.62,4.1
				c-0.68,0.99-0.46,2.25-0.54,3.46l-0.34,0.04l0.85,2.49l-0.18,10.83l-0.6,10.52l1.5,1.49l4.68,6l0.16,1.16
				c1.19,0.68,1.6,3.52,1.92,5.04l2.21,3.11c0.52,1.02,1.31,1.89,1.99,2.88c1.69,1.15,3.01,2.92,4.33,4.38v-0.56l0.34,0.04v-0.4
				l2.46,0.85l1.33-1.24l0.84,0.32c2.34-0.08,4.02,0.98,6.16,1.82c1.53,2.62,1.17,2.12,5.05,3.47l1.02-1.31l0.53,0.25l0.48-0.67
				c2,0.67,2.93,0.87,4.9,1.1c4.3,0.57,7.4,2.4,8.47,6.7l0.61,0.23v1.53c3.12,1.02,5.19,1.82,7.68,4.01v0.16
				c1.43,0.91,2.73,3.96,2.9,5.37c0.24,2.52-0.08,5.13-0.08,7.74l-2.01,1.45l0.64,0.21v1.24c0.76,1.2,0.66,2,2.07,2.66v1.55
				l0.54,0.39c0.2,1.58,0.16,1.6,1.54,2.29c0.04,1.8,0.14,3.58,0.37,5.47l0.66,0.29c0.03,0.83,0.03,1.73,0.11,2.54l0.66,0.28v0.85
				l0.36,0.14c0,1.55,0.1,2.18,0.85,3.4c1.52,2.23,1.38,5.11,1.62,7.81l0.5,0.22c0.25,1.87-0.15,1.55,1.28,2.19v9.6l-2.55-0.49
				c-1.41,2.18-2.5,5.65-2.68,8.25l0.56,0.23c0,0.82,0,1.75,0.16,2.59l0.62,0.27l1.01,3.12v0.22l0.38,0.19v1.36l0.39,0.14l0.61,2.58
				l2.63,10.91l1.01,0.43v2.81c0.74,2,0.63,3.58,0.84,5.6c0.49,0.21,1.11,2.39,1.41,3.09c0.5,0.22,1.14,2.42,1.38,3.1l0.53,0.29
				c0.23,3.09,0.1,3.43,2.69,5.46v0.39c2.52,2.06,1.05,7.21,1.05,10.05l1.94,1.89c3.08-2.16,6.94-0.31,10.01,0.94
				c0.31,1.9,0.15,1.82,1.99,2.17v-1.8l1.82,0.77v-0.38l4.71,1.28l0.09-0.84c1.05-0.94,1.47-0.94,1.47-2.33
				c1.69-3,1.8-2.82,2.15-6.3l1.84,0.23l0.89-1.79l0.25,0.06L160.31,206.76 M159.99,202.7v-0.58l0.32,0.14v0.16L159.99,202.7z
				 M160.31,364.21V206.76c0.73,0.36,1.46,0.9,2.07,1.58c2.02,2.38,1.93,1.57,2.02,4.81l0.71,0.4v2.03l0.84,0.32
				c0.35,3.63,0.79,6.7,3.63,9.42c0,1.75-0.39,3.25,0.55,4.78c0.24,0.39,0.8,1.33,0.98,1.41l0.69,0.56v2.19l0.71,0.2l0.59,3.61
				l2.42,3.75c1.18,0.87,0.77,0.67,0.9,2.41l0.55,0.31c0.2,1.6,0.03,3.25,0.03,4.88l4.63,7.02c0.47,0.46,0.47,0.43,0.63,1.13
				c1.52,0.92,1.18,0.5,1.56,2.22l1,0.32l1.52,1.63v4.77l2.75,3.42l3.06,1.66c3.2,1.43,7.76,3.34,11.28,3.72l3.25,0.81l-2.47,1.26
				c0,1.28,0,1.32-0.55,2.28l-1.74-0.16v0.51l-0.75-0.19v0.6l-0.38-0.11v3.7l-1,1.88l-1.29,0.26v0.78l-0.95-0.15l-0.31,1.95
				l-1.56-0.45l-0.42,2.82l-1.23,0.94l-0.91-0.07l-4.03,2.23c-2.09,1.87-4.37,3.31-6.04,5.5l-1.95-0.54l-0.15,1.59l-0.24-0.02
				l-2.6,3.95v0.72c-0.34,0.26-0.8,1.17-0.9,1.55l-0.95-0.36v7.53l0.77,0.49l1.08,2.02v8.88l1.43,0.73
				c-0.37,3.81-1.33,7.89-0.97,11.69l-0.46-0.15v1.7l-5.56,0.51l-2.29-0.2v0.25l-0.38-0.13l-0.46,2.06l-3.61,2.01v6.28l0.83,0.69
				v1.46l1.4,3.96l-1.68-0.53c-1.25,0.82-1.99,1.34-3.12,2.28l-0.16,1.53c-0.5,1.7-0.64,3.6-0.79,5.38L160.31,364.21z
				 M160.31,202.25h0.04v-0.9l0.26,0.13v0.68l-0.3,0.25L160.31,202.25L160.31,202.25z"/>
			<line class="st3" x1="43.41" y1="141.31" x2="243.01" y2="74.83"/>
			<line class="st3" x1="392.59" y1="141.41" x2="192.91" y2="75.16"/>
			<path class="st1" d="M159.28,148.26c18.72-5.51,35.84-10.62,51.49-15.28c14.28-4.34,27.56-8.25,39.86-11.93
				c2.75,0.45,5.53,0.96,8.35,1.43c2.84,0.55,5.71,1.06,8.67,1.59c-12.13,3.87-25.18,8.19-39.48,12.83
				c-15.49,5.05-32.56,10.63-51.35,16.7c-3.04-0.91-6.04-1.81-9.02-2.68C164.92,150.03,162.12,149.14,159.28,148.26"/>
			<path class="st2" d="M326.87,249.13c0-11.64,1.99-20.5,6.02-26.53c3.93-6.1,10.53-10.7,19.95-13.99
				c9.29-3.19,15.96-3.17,19.91,0.23c4.01,3.37,5.96,10.82,5.96,22.41v6.72l-20.87,7.21v-11.55c0-3.83-0.31-6.17-1.08-6.95
				c-0.71-0.8-2.05-0.82-3.92-0.17c-1.99,0.73-3.28,1.64-3.98,2.77c-0.77,1.23-1.07,3.55-1.07,7.16v44.43
				c0,3.56,0.31,5.71,1.07,6.43c0.72,0.68,2.06,0.74,3.98,0.05c1.91-0.7,3.24-1.66,3.92-2.89c0.77-1.24,1.08-3.9,1.08-7.77v-16.27
				l20.87-7.17v11.38c0,11.61-1.95,20.43-5.96,26.52c-3.95,6.06-10.62,10.75-19.91,13.92c-9.42,3.28-16.02,3.22-19.95-0.2
				c-4.03-3.32-6.02-10.81-6.02-22.46V249.13 M275.14,330.7v-94.12l41.9-14.46v17.9l-21.39,7.39v15.97l20.65-7.05v17.72l-20.65,7.08
				v24.58l22.38-7.75v17.94L275.14,330.7z M241.3,248.23l20.56-7.1v94.15l-20.56,7.08L241.3,248.23L241.3,248.23z"/>
			<path class="st4" d="M141.54,356.67c7.03,2.05,12.78,9.27,12.78,16.18c0,6.83-5.75,10.8-12.78,8.74
				c-7.1-2.05-12.83-9.29-12.83-16.22C128.72,358.59,134.45,354.64,141.54,356.67"/>
			<path class="st2" d="M175.46,54.97c14.86-6.19,29.24-12.1,43.2-17.91c13.36-5.56,26.46-11,39.09-16.25
				c2.68,14.22,5.38,28.31,8.06,42.24c2.58,13.86,5.25,27.51,7.84,41.06c-12.05,6.42-24.52,12.98-37.25,19.74
				c-13.26,7-26.9,14.23-40.98,21.75c-3.25-14.75-6.53-29.61-9.84-44.63C182.22,85.83,178.86,70.48,175.46,54.97"/>
			<path class="st1" d="M179.98,57.27c13.53-5.63,26.68-11.17,39.36-16.52c12.35-5.13,24.33-10.19,36.01-15.09
				c2.45,13.06,4.98,26.02,7.42,38.84c2.46,12.71,4.88,25.3,7.25,37.84c-11.12,5.89-22.58,11.85-34.37,18.06
				c-12.16,6.35-24.62,12.91-37.49,19.73c-2.94-13.53-5.92-27.14-8.94-40.84C186.16,85.43,183.12,71.44,179.98,57.27"/>
			<path class="st2" d="M196.87,60.29c5.07,2.57,10.1,5.14,15.08,7.67c4.91,2.46,9.69,4.93,14.46,7.35c3-5.98,6.04-11.96,9.01-17.93
				c2.91-5.86,5.87-11.72,8.79-17.52c1.13-2.18,3.41-3.14,5.12-2.22c1.7,0.98,2.2,3.58,1.14,5.71c-2.89,5.83-5.79,11.62-8.72,17.49
				c-2.92,5.85-5.85,11.82-8.85,17.77c4.65,2.34,9.21,4.69,13.8,7c4.5,2.3,8.89,4.47,13.28,6.74c1.62,0.85,2.11,3.3,1.05,5.52
				c-1,2.19-3.27,3.3-4.9,2.51c-4.41-2.2-8.9-4.39-13.43-6.62c-4.55-2.23-9.25-4.55-13.89-6.87c-3.03,6.05-6.06,12.18-9.17,18.28
				c-3.04,6.19-6.12,12.38-9.16,18.69c-1.26,2.4-3.79,3.69-5.59,2.82c-1.95-0.76-2.48-3.44-1.29-5.82
				c3.2-6.29,6.32-12.53,9.44-18.83c3.08-6.12,6.11-12.26,9.16-18.4c-4.74-2.35-9.58-4.78-14.56-7.21
				c-5.01-2.45-10.13-4.97-15.26-7.59c-1.95-0.92-2.53-3.66-1.32-5.99C192.3,60.45,194.92,59.31,196.87,60.29"/>
		</g>
		<g>
			<path class="st1" d="M39.6,484.07l6.72-0.62c0.41,2.14,1.23,3.71,2.46,4.7c1.23,1.01,2.9,1.51,5.01,1.51
				c2.23,0,3.9-0.44,5.03-1.33c1.13-0.89,1.69-1.94,1.69-3.13c0-0.76-0.24-1.42-0.71-1.95c-0.48-0.53-1.3-1-2.49-1.41
				c-0.81-0.26-2.65-0.74-5.53-1.41c-3.71-0.87-6.3-1.94-7.8-3.21c-2.1-1.78-3.15-3.95-3.15-6.52c0-1.65,0.5-3.19,1.48-4.63
				c0.99-1.45,2.41-2.54,4.28-3.29c1.86-0.75,4.1-1.13,6.74-1.13c4.3,0,7.53,0.9,9.7,2.68s3.31,4.16,3.42,7.14l-6.91,0.29
				c-0.29-1.67-0.93-2.86-1.9-3.59c-0.98-0.73-2.44-1.1-4.38-1.1c-2.01,0-3.58,0.39-4.72,1.17c-0.73,0.5-1.1,1.17-1.1,2.01
				c0,0.77,0.34,1.43,1.03,1.97c0.88,0.69,2.99,1.41,6.35,2.16c3.37,0.75,5.85,1.53,7.46,2.33c1.61,0.81,2.87,1.9,3.78,3.29
				c0.91,1.4,1.36,3.12,1.36,5.17c0,1.86-0.54,3.59-1.63,5.22c-1.09,1.62-2.63,2.83-4.62,3.61c-1.99,0.79-4.48,1.19-7.45,1.19
				c-4.33,0-7.65-0.95-9.97-2.84C41.43,490.46,40.05,487.7,39.6,484.07z"/>
			<path class="st1" d="M71.84,478.61c0-3.3,0.52-6.07,1.56-8.32c0.77-1.64,1.84-3.13,3.19-4.45c1.35-1.3,2.82-2.28,4.42-2.92
				c2.13-0.86,4.59-1.28,7.38-1.28c5.04,0,9.08,1.48,12.11,4.45c3.03,2.96,4.55,7.09,4.55,12.35c0,5.24-1.5,9.33-4.51,12.29
				c-3.01,2.95-7.02,4.44-12.05,4.44c-5.09,0-9.14-1.47-12.14-4.42C73.34,487.82,71.84,483.77,71.84,478.61z M78.96,478.38
				c0,3.67,0.89,6.45,2.68,8.35c1.79,1.89,4.06,2.85,6.82,2.85c2.75,0,5.01-0.95,6.78-2.82c1.77-1.88,2.65-4.7,2.65-8.46
				c0-3.72-0.86-6.49-2.58-8.32c-1.72-1.83-4-2.74-6.85-2.74s-5.15,0.93-6.89,2.77C79.83,471.86,78.96,474.66,78.96,478.38z"/>
			<path class="st1" d="M110.39,462.2h6.91v17.55c0,2.79,0.08,4.59,0.26,5.42c0.3,1.32,1,2.38,2.11,3.2c1.11,0.8,2.64,1.2,4.56,1.2
				c1.97,0,3.44-0.38,4.44-1.14c1-0.77,1.6-1.69,1.8-2.8c0.21-1.1,0.3-2.94,0.3-5.51V462.2h6.91v17.02c0,3.89-0.19,6.64-0.56,8.25
				c-0.38,1.61-1.07,2.97-2.07,4.07c-1,1.11-2.35,1.99-4.03,2.65c-1.68,0.65-3.87,0.98-6.58,0.98c-3.28,0-5.75-0.36-7.44-1.08
				c-1.69-0.71-3.02-1.64-4-2.79c-0.98-1.14-1.63-2.34-1.94-3.59c-0.45-1.86-0.68-4.6-0.68-8.22V462.2H110.39z"/>
			<path class="st1" d="M152.68,494.62v-26.94h-10.15v-5.48h27.2v5.48H159.6v26.94H152.68z"/>
			<path class="st1" d="M174.21,494.62V462.2h6.91v12.76h13.54V462.2h6.92v32.42h-6.92v-14.17h-13.54v14.17H174.21z"/>
			<path class="st1" d="M251.09,494.62h-7.51l-2.99-7.37H226.9l-2.83,7.37h-7.33l13.33-32.42h7.31L251.09,494.62z M238.37,481.79
				l-4.72-12.03l-4.62,12.03H238.37z"/>
			<path class="st1" d="M254.81,494.62V462.2h23.47v5.48h-16.56v7.67H276v5.48h-14.29v13.78L254.81,494.62L254.81,494.62z"/>
			<path class="st1" d="M283.99,494.62V462.2h14.55c3.66,0,6.32,0.28,7.97,0.87c1.66,0.58,2.99,1.62,3.98,3.11
				c1,1.49,1.49,3.19,1.49,5.11c0,2.44-0.76,4.45-2.26,6.03c-1.51,1.59-3.77,2.59-6.77,3c1.49,0.82,2.73,1.73,3.7,2.72
				s2.28,2.74,3.93,5.26l4.18,6.33h-8.27l-5-7.06c-1.78-2.52-2.99-4.11-3.64-4.76c-0.66-0.66-1.35-1.11-2.08-1.36
				c-0.73-0.24-1.89-0.37-3.48-0.37h-1.4v13.54H283.99z M290.91,475.91h5.11c3.32,0,5.39-0.13,6.21-0.4
				c0.82-0.26,1.47-0.72,1.94-1.37c0.47-0.64,0.7-1.46,0.7-2.43c0-1.09-0.31-1.97-0.92-2.64c-0.62-0.67-1.48-1.09-2.61-1.27
				c-0.56-0.08-2.24-0.11-5.05-0.11h-5.39v8.22H290.91z"/>
			<path class="st1" d="M318.29,494.62V462.2h6.91v32.42H318.29z"/>
			<path class="st1" d="M353.69,482.7l6.7,2.01c-1.03,3.54-2.74,6.17-5.13,7.89c-2.39,1.71-5.42,2.57-9.09,2.57
				c-4.54,0-8.28-1.47-11.21-4.42c-2.92-2.94-4.39-6.96-4.39-12.06c0-5.4,1.47-9.58,4.41-12.57c2.94-2.99,6.81-4.48,11.61-4.48
				c4.19,0,7.59,1.17,10.2,3.52c1.56,1.38,2.72,3.38,3.5,5.97l-6.84,1.54c-0.41-1.68-1.25-3.01-2.54-3.98
				c-1.28-0.98-2.84-1.46-4.67-1.46c-2.54,0-4.6,0.87-6.18,2.58c-1.58,1.73-2.37,4.52-2.37,8.38c0,4.1,0.78,7.02,2.33,8.76
				c1.55,1.74,3.58,2.61,6.07,2.61c1.84,0,3.42-0.56,4.74-1.66C352.17,486.81,353.12,485.07,353.69,482.7z"/>
			<path class="st1" d="M397.19,494.62h-7.52l-2.99-7.37H373l-2.83,7.37h-7.33l13.33-32.42h7.31L397.19,494.62z M384.47,481.79
				l-4.72-12.03l-4.63,12.03H384.47z"/>
		</g>
		<g>
			<path class="st1" d="M486.56,180.45h-19.89v18.45h22.17v5.54h-28.78v-51.18h27.64v5.54h-21.03v16.17h19.89V180.45z"/>
			<path class="st1" d="M497.42,153.27h6.61v45.63h21.87v5.54h-28.47v-51.17H497.42z"/>
			<path class="st1" d="M559.76,180.45h-19.89v18.45h22.17v5.54h-28.78v-51.18h27.64v5.54h-21.03v16.17h19.89L559.76,180.45
				L559.76,180.45z"/>
			<path class="st1" d="M606.38,202.77c-2.43,1.21-7.29,2.43-13.51,2.43c-14.43,0-25.28-9.11-25.28-25.89
				c0-16.02,10.86-26.88,26.73-26.88c6.38,0,10.4,1.37,12.15,2.28l-1.59,5.39c-2.51-1.21-6.07-2.13-10.33-2.13
				c-12,0-19.97,7.67-19.97,21.11c0,12.53,7.21,20.58,19.67,20.58c4.02,0,8.12-0.83,10.78-2.13L606.38,202.77z"/>
			<path class="st1" d="M626.5,158.89h-15.57v-5.62h37.89v5.62h-15.64v45.56h-6.68V158.89z"/>
			<path class="st1" d="M696.21,178.32c0,17.62-10.71,26.95-23.77,26.95c-13.51,0-23.01-10.48-23.01-25.97
				c0-16.25,10.1-26.88,23.77-26.88C687.17,152.43,696.21,163.14,696.21,178.32z M656.5,179.16c0,10.93,5.92,20.73,16.32,20.73
				c10.48,0,16.4-9.64,16.4-21.26c0-10.17-5.31-20.8-16.32-20.8C661.96,157.82,656.5,167.92,656.5,179.16z"/>
			<path class="st1" d="M704.79,153.95c3.34-0.68,8.12-1.06,12.68-1.06c7.06,0,11.62,1.29,14.81,4.18c2.58,2.28,4.02,5.77,4.02,9.72
				c0,6.76-4.25,11.24-9.64,13.06v0.23c3.95,1.37,6.3,5.01,7.52,10.33c1.67,7.14,2.89,12.07,3.95,14.05h-6.83
				c-0.84-1.44-1.97-5.85-3.42-12.22c-1.52-7.06-4.25-9.72-10.25-9.95h-6.23v22.17h-6.61L704.79,153.95L704.79,153.95z
				 M711.4,177.26h6.76c7.06,0,11.54-3.87,11.54-9.72c0-6.61-4.78-9.49-11.77-9.57c-3.19,0-5.47,0.3-6.53,0.61L711.4,177.26
				L711.4,177.26z"/>
			<path class="st1" d="M754.3,188.35l-5.32,16.1h-6.83l17.39-51.18h7.97l17.46,51.18h-7.06l-5.47-16.1H754.3z M771.08,183.18
				l-5.01-14.73c-1.14-3.34-1.9-6.38-2.66-9.34h-0.15c-0.76,3.04-1.59,6.15-2.58,9.26l-5.01,14.81H771.08z"/>
			<path class="st1" d="M792.49,153.27h6.61v45.63h21.87v5.54H792.5v-51.17H792.49z"/>
			<path class="st1" d="M880.19,202.77c-2.43,1.21-7.29,2.43-13.51,2.43c-14.43,0-25.28-9.11-25.28-25.89
				c0-16.02,10.86-26.88,26.73-26.88c6.38,0,10.4,1.37,12.15,2.28l-1.59,5.39c-2.5-1.21-6.07-2.13-10.33-2.13
				c-12,0-19.97,7.67-19.97,21.11c0,12.53,7.21,20.58,19.67,20.58c4.02,0,8.13-0.83,10.78-2.13L880.19,202.77z"/>
			<path class="st1" d="M930.61,178.32c0,17.62-10.71,26.95-23.77,26.95c-13.51,0-23.01-10.48-23.01-25.97
				c0-16.25,10.1-26.88,23.77-26.88C921.58,152.43,930.61,163.14,930.61,178.32z M890.9,179.16c0,10.93,5.92,20.73,16.32,20.73
				c10.48,0,16.4-9.64,16.4-21.26c0-10.17-5.31-20.8-16.32-20.8C896.37,157.82,890.9,167.92,890.9,179.16z"/>
			<path class="st1" d="M982.32,181.97c-0.38-7.14-0.83-15.72-0.76-22.1h-0.23c-1.75,6-3.87,12.38-6.45,19.44l-9.04,24.83h-5.01
				l-8.28-24.37c-2.43-7.21-4.48-13.82-5.92-19.89h-0.15c-0.15,6.38-0.53,14.96-0.99,22.63l-1.37,21.94h-6.3l3.57-51.18h8.43
				l8.73,24.75c2.13,6.3,3.87,11.92,5.16,17.24h0.23c1.29-5.16,3.11-10.78,5.39-17.24l9.11-24.75h8.43l3.19,51.18h-6.45
				L982.32,181.97z"/>
			<path class="st1" d="M1043.37,181.97c-0.38-7.14-0.83-15.72-0.76-22.1h-0.23c-1.75,6-3.87,12.38-6.45,19.44l-9.04,24.83h-5.01
				l-8.28-24.37c-2.43-7.21-4.48-13.82-5.92-19.89h-0.15c-0.15,6.38-0.53,14.96-0.99,22.63l-1.37,21.94h-6.3l3.57-51.18h8.43
				l8.73,24.75c2.13,6.3,3.87,11.92,5.16,17.24h0.23c1.29-5.16,3.11-10.78,5.39-17.24l9.11-24.75h8.43l3.19,51.18h-6.45
				L1043.37,181.97z"/>
			<path class="st1" d="M1067.9,153.27v51.18h-6.61v-51.18L1067.9,153.27L1067.9,153.27z"/>
			<path class="st1" d="M1078.53,196.39c2.96,1.82,7.29,3.34,11.84,3.34c6.76,0,10.71-3.57,10.71-8.73c0-4.78-2.73-7.52-9.64-10.17
				c-8.35-2.96-13.52-7.29-13.52-14.5c0-7.97,6.61-13.89,16.55-13.89c5.24,0,9.04,1.21,11.31,2.51l-1.82,5.39
				c-1.67-0.91-5.09-2.43-9.72-2.43c-6.99,0-9.64,4.18-9.64,7.67c0,4.78,3.11,7.14,10.17,9.87c8.66,3.34,13.06,7.52,13.06,15.03
				c0,7.9-5.85,14.73-17.92,14.73c-4.93,0-10.33-1.44-13.06-3.26L1078.53,196.39z"/>
			<path class="st1" d="M1115.97,196.39c2.96,1.82,7.29,3.34,11.84,3.34c6.76,0,10.71-3.57,10.71-8.73c0-4.78-2.73-7.52-9.64-10.17
				c-8.35-2.96-13.52-7.29-13.52-14.5c0-7.97,6.61-13.89,16.55-13.89c5.24,0,9.04,1.21,11.31,2.51l-1.82,5.39
				c-1.67-0.91-5.09-2.43-9.72-2.43c-6.99,0-9.64,4.18-9.64,7.67c0,4.78,3.11,7.14,10.17,9.87c8.66,3.34,13.06,7.52,13.06,15.03
				c0,7.9-5.85,14.73-17.92,14.73c-4.93,0-10.33-1.44-13.06-3.26L1115.97,196.39z"/>
			<path class="st1" d="M1160.92,153.27v51.18h-6.61v-51.18L1160.92,153.27L1160.92,153.27z"/>
			<path class="st1" d="M1216.2,178.32c0,17.62-10.71,26.95-23.77,26.95c-13.51,0-23.01-10.48-23.01-25.97
				c0-16.25,10.1-26.88,23.77-26.88C1207.16,152.43,1216.2,163.14,1216.2,178.32z M1176.49,179.16c0,10.93,5.92,20.73,16.32,20.73
				c10.48,0,16.4-9.64,16.4-21.26c0-10.17-5.32-20.8-16.32-20.8C1181.95,157.82,1176.49,167.92,1176.49,179.16z"/>
			<path class="st1" d="M1224.78,204.44v-51.18h7.21l16.4,25.89c3.8,6,6.76,11.39,9.19,16.63l0.15-0.08
				c-0.61-6.83-0.76-13.06-0.76-21.03v-21.41h6.23v51.18h-6.68l-16.25-25.97c-3.57-5.69-6.99-11.54-9.57-17.08l-0.23,0.08
				c0.38,6.45,0.53,12.6,0.53,21.11v21.87L1224.78,204.44L1224.78,204.44z"/>
			<path class="st1" d="M1334.58,178.32c0,17.62-10.71,26.95-23.77,26.95c-13.51,0-23.01-10.48-23.01-25.97
				c0-16.25,10.1-26.88,23.77-26.88C1325.54,152.43,1334.58,163.14,1334.58,178.32z M1294.87,179.16c0,10.93,5.92,20.73,16.32,20.73
				c10.48,0,16.4-9.64,16.4-21.26c0-10.17-5.31-20.8-16.32-20.8C1300.33,157.82,1294.87,167.92,1294.87,179.16z"/>
			<path class="st1" d="M1343.16,153.27h27.56v5.54h-20.96v17.01h19.36v5.47h-19.36v23.16h-6.61L1343.16,153.27L1343.16,153.27z"/>
			<path class="st1" d="M1395.32,196.39c2.96,1.82,7.29,3.34,11.84,3.34c6.76,0,10.71-3.57,10.71-8.73c0-4.78-2.73-7.52-9.64-10.17
				c-8.35-2.96-13.52-7.29-13.52-14.5c0-7.97,6.61-13.89,16.55-13.89c5.24,0,9.04,1.21,11.31,2.51l-1.82,5.39
				c-1.67-0.91-5.09-2.43-9.72-2.43c-6.99,0-9.64,4.18-9.64,7.67c0,4.78,3.11,7.14,10.17,9.87c8.66,3.34,13.06,7.52,13.06,15.03
				c0,7.9-5.85,14.73-17.92,14.73c-4.93,0-10.33-1.44-13.06-3.26L1395.32,196.39z"/>
			<path class="st1" d="M1477.41,178.32c0,17.62-10.71,26.95-23.77,26.95c-13.51,0-23.01-10.48-23.01-25.97
				c0-16.25,10.1-26.88,23.77-26.88C1468.37,152.43,1477.41,163.14,1477.41,178.32z M1437.7,179.16c0,10.93,5.92,20.73,16.32,20.73
				c10.48,0,16.4-9.64,16.4-21.26c0-10.17-5.31-20.8-16.32-20.8C1443.16,157.82,1437.7,167.92,1437.7,179.16z"/>
			<path class="st1" d="M1492.59,153.27v30.29c0,11.47,5.09,16.32,11.92,16.32c7.59,0,12.45-5.01,12.45-16.32v-30.29h6.68v29.84
				c0,15.72-8.28,22.17-19.36,22.17c-10.48,0-18.38-6-18.38-21.87v-30.14L1492.59,153.27L1492.59,153.27z"/>
			<path class="st1" d="M1544.84,158.89h-15.57v-5.62h37.89v5.62h-15.64v45.56h-6.68V158.89z"/>
			<path class="st1" d="M1579.46,153.27v21.41h24.75v-21.41h6.68v51.18h-6.68v-23.99h-24.75v23.99h-6.61v-51.18L1579.46,153.27
				L1579.46,153.27z"/>
			<path class="st1" d="M1646.74,188.35l-5.32,16.1h-6.83l17.39-51.18h7.97l17.46,51.18h-7.06l-5.47-16.1H1646.74z M1663.52,183.18
				l-5.01-14.73c-1.14-3.34-1.9-6.38-2.66-9.34h-0.15c-0.76,3.04-1.59,6.15-2.58,9.26l-5.01,14.81H1663.52z"/>
			<path class="st1" d="M1684.93,153.27h27.56v5.54h-20.96v17.01h19.36v5.47h-19.36v23.16h-6.61L1684.93,153.27L1684.93,153.27z"/>
			<path class="st1" d="M1721.91,153.95c3.34-0.68,8.12-1.06,12.68-1.06c7.06,0,11.62,1.29,14.81,4.18
				c2.58,2.28,4.02,5.77,4.02,9.72c0,6.76-4.25,11.24-9.64,13.06v0.23c3.95,1.37,6.3,5.01,7.52,10.33
				c1.67,7.14,2.89,12.07,3.95,14.05h-6.83c-0.83-1.44-1.97-5.85-3.42-12.22c-1.52-7.06-4.25-9.72-10.25-9.95h-6.23v22.17h-6.61
				L1721.91,153.95L1721.91,153.95z M1728.52,177.26h6.76c7.06,0,11.54-3.87,11.54-9.72c0-6.61-4.78-9.49-11.77-9.57
				c-3.19,0-5.47,0.3-6.53,0.61V177.26z"/>
			<path class="st1" d="M1769.37,153.27v51.18h-6.61v-51.18L1769.37,153.27L1769.37,153.27z"/>
			<path class="st1" d="M1816.68,202.77c-2.43,1.21-7.29,2.43-13.51,2.43c-14.43,0-25.28-9.11-25.28-25.89
				c0-16.02,10.86-26.88,26.73-26.88c6.38,0,10.4,1.37,12.15,2.28l-1.59,5.39c-2.5-1.21-6.07-2.13-10.33-2.13
				c-12,0-19.97,7.67-19.97,21.11c0,12.53,7.21,20.58,19.67,20.58c4.02,0,8.13-0.83,10.78-2.13L1816.68,202.77z"/>
			<path class="st1" d="M1833.54,188.35l-5.32,16.1h-6.83l17.39-51.18h7.97l17.46,51.18h-7.06l-5.47-16.1H1833.54z M1850.31,183.18
				l-5.01-14.73c-1.14-3.34-1.9-6.38-2.66-9.34h-0.15c-0.76,3.04-1.59,6.15-2.58,9.26l-5.01,14.81H1850.31z"/>
			<path class="st1" d="M486.56,271.57h-19.89v18.45h22.17v5.54h-28.78v-51.18h27.64v5.54h-21.03v16.17h19.89V271.57z"/>
			<path class="st1" d="M497.42,295.56v-51.18h7.21l16.4,25.89c3.8,6,6.76,11.39,9.19,16.63l0.15-0.08
				c-0.61-6.83-0.76-13.06-0.76-21.03v-21.41h6.23v51.18h-6.68l-16.25-25.97c-3.57-5.69-6.99-11.54-9.57-17.08l-0.23,0.08
				c0.38,6.45,0.53,12.6,0.53,21.11v21.87h-6.22V295.56z"/>
			<path class="st1" d="M546.47,287.52c2.96,1.82,7.29,3.34,11.84,3.34c6.76,0,10.71-3.57,10.71-8.73c0-4.78-2.73-7.52-9.64-10.17
				c-8.35-2.96-13.51-7.29-13.51-14.5c0-7.97,6.61-13.9,16.55-13.9c5.24,0,9.04,1.21,11.31,2.51l-1.82,5.39
				c-1.67-0.91-5.09-2.43-9.72-2.43c-6.99,0-9.64,4.18-9.64,7.67c0,4.78,3.11,7.14,10.17,9.87c8.66,3.34,13.06,7.52,13.06,15.03
				c0,7.9-5.85,14.73-17.92,14.73c-4.94,0-10.33-1.44-13.06-3.26L546.47,287.52z"/>
			<path class="st1" d="M591.42,244.39v30.3c0,11.46,5.09,16.32,11.92,16.32c7.59,0,12.45-5.01,12.45-16.32v-30.3h6.68v29.84
				c0,15.72-8.28,22.17-19.36,22.17c-10.48,0-18.38-6-18.38-21.87v-30.14L591.42,244.39L591.42,244.39z"/>
			<path class="st1" d="M633.95,245.07c3.34-0.68,8.12-1.06,12.68-1.06c7.06,0,11.62,1.29,14.81,4.18c2.58,2.28,4.02,5.77,4.02,9.72
				c0,6.76-4.25,11.24-9.64,13.06v0.23c3.95,1.37,6.3,5.01,7.52,10.33c1.67,7.14,2.89,12.07,3.95,14.05h-6.83
				c-0.83-1.44-1.97-5.85-3.42-12.22c-1.52-7.06-4.25-9.72-10.25-9.95h-6.23v22.17h-6.61L633.95,245.07L633.95,245.07z
				 M640.55,268.38h6.76c7.06,0,11.54-3.87,11.54-9.72c0-6.61-4.78-9.49-11.77-9.57c-3.19,0-5.47,0.3-6.53,0.61L640.55,268.38
				L640.55,268.38z"/>
			<path class="st1" d="M681.4,244.39v51.18h-6.61v-51.18L681.4,244.39L681.4,244.39z"/>
			<path class="st1" d="M692.95,295.56v-51.18h7.21l16.4,25.89c3.8,6,6.76,11.39,9.19,16.63l0.15-0.08
				c-0.61-6.83-0.76-13.06-0.76-21.03v-21.41h6.23v51.18h-6.68l-16.25-25.97c-3.57-5.69-6.99-11.54-9.57-17.08l-0.23,0.08
				c0.38,6.45,0.53,12.6,0.53,21.11v21.87h-6.22V295.56z"/>
			<path class="st1" d="M781.86,293.29c-2.96,1.06-8.81,2.81-15.72,2.81c-7.74,0-14.12-1.97-19.13-6.76
				c-4.4-4.25-7.14-11.09-7.14-19.06c0.08-15.26,10.55-26.42,27.71-26.42c5.92,0,10.55,1.29,12.76,2.35l-1.59,5.39
				c-2.73-1.21-6.15-2.2-11.31-2.2c-12.45,0-20.58,7.74-20.58,20.58c0,12.98,7.82,20.65,19.74,20.65c4.33,0,7.29-0.61,8.81-1.37V274
				H765v-5.31h16.86V293.29z"/>
			<path class="st1" d="M808.06,244.39h27.56v5.54h-20.96v17.01h19.36v5.47h-19.36v23.16h-6.61v-51.18H808.06z"/>
			<path class="st1" d="M845.04,245.07c3.34-0.68,8.12-1.06,12.68-1.06c7.06,0,11.62,1.29,14.81,4.18c2.58,2.28,4.02,5.77,4.02,9.72
				c0,6.76-4.25,11.24-9.64,13.06v0.23c3.95,1.37,6.3,5.01,7.52,10.33c1.67,7.14,2.89,12.07,3.95,14.05h-6.83
				c-0.83-1.44-1.97-5.85-3.42-12.22c-1.52-7.06-4.25-9.72-10.25-9.95h-6.23v22.17h-6.61L845.04,245.07L845.04,245.07z
				 M851.64,268.38h6.76c7.06,0,11.54-3.87,11.54-9.72c0-6.61-4.78-9.49-11.77-9.57c-3.19,0-5.47,0.3-6.53,0.61L851.64,268.38
				L851.64,268.38z"/>
			<path class="st1" d="M912.39,271.57H892.5v18.45h22.17v5.54h-28.78v-51.18h27.64v5.54H892.5v16.17h19.89V271.57z"/>
			<path class="st1" d="M949.75,271.57h-19.89v18.45h22.17v5.54h-28.78v-51.18h27.64v5.54h-21.03v16.17h19.89L949.75,271.57
				L949.75,271.57z"/>
			<path class="st1" d="M984.98,279.47l-5.32,16.1h-6.83l17.39-51.18h7.97l17.46,51.18h-7.06l-5.47-16.1H984.98z M1001.76,274.3
				l-5.01-14.73c-1.14-3.34-1.9-6.38-2.66-9.34h-0.15c-0.76,3.04-1.59,6.15-2.58,9.26l-5.01,14.81H1001.76z"/>
			<path class="st1" d="M1023.18,295.56v-51.18h7.21l16.4,25.89c3.8,6,6.76,11.39,9.19,16.63l0.15-0.08
				c-0.61-6.83-0.76-13.06-0.76-21.03v-21.41h6.23v51.18h-6.68l-16.25-25.97c-3.57-5.69-6.99-11.54-9.57-17.08l-0.23,0.08
				c0.38,6.45,0.53,12.6,0.53,21.11v21.87h-6.22V295.56z"/>
			<path class="st1" d="M1073.14,245.07c4.02-0.61,8.81-1.06,14.05-1.06c9.49,0,16.25,2.2,20.73,6.38
				c4.56,4.18,7.21,10.1,7.21,18.37c0,8.35-2.58,15.19-7.37,19.89c-4.78,4.78-12.68,7.37-22.63,7.37c-4.71,0-8.66-0.23-12-0.61
				v-50.34H1073.14z M1079.75,290.32c1.67,0.3,4.1,0.38,6.68,0.38c14.12,0,21.79-7.9,21.79-21.72c0.08-12.07-6.76-19.74-20.73-19.74
				c-3.42,0-6,0.3-7.75,0.68L1079.75,290.32L1079.75,290.32z"/>
			<path class="st1" d="M1139.81,244.39h27.56v5.54h-20.96v17.01h19.36v5.47h-19.36v23.16h-6.61L1139.81,244.39L1139.81,244.39z"/>
			<path class="st1" d="M1179.14,279.47l-5.32,16.1H1167l17.39-51.18h7.97l17.46,51.18h-7.06l-5.47-16.1H1179.14z M1195.92,274.3
				l-5.01-14.73c-1.14-3.34-1.9-6.38-2.66-9.34h-0.15c-0.76,3.04-1.59,6.15-2.58,9.26l-5.01,14.81H1195.92z"/>
			<path class="st1" d="M1223.95,244.39v51.18h-6.61v-51.18L1223.95,244.39L1223.95,244.39z"/>
			<path class="st1" d="M1235.49,245.07c3.34-0.68,8.12-1.06,12.68-1.06c7.06,0,11.62,1.29,14.81,4.18
				c2.58,2.28,4.02,5.77,4.02,9.72c0,6.76-4.25,11.24-9.64,13.06v0.23c3.95,1.37,6.3,5.01,7.52,10.33
				c1.67,7.14,2.89,12.07,3.95,14.05H1262c-0.84-1.44-1.97-5.85-3.42-12.22c-1.52-7.06-4.25-9.72-10.25-9.95h-6.23v22.17h-6.61
				L1235.49,245.07L1235.49,245.07z M1242.09,268.38h6.76c7.06,0,11.54-3.87,11.54-9.72c0-6.61-4.78-9.49-11.77-9.57
				c-3.19,0-5.47,0.3-6.53,0.61V268.38z"/>
			<path class="st1" d="M1318.94,271.57h-19.89v18.45h22.17v5.54h-28.78v-51.18h27.64v5.54h-21.03v16.17h19.89V271.57z"/>
			<path class="st1" d="M1329.8,244.39h6.61v45.63h21.87v5.54h-28.47v-51.17H1329.8z"/>
			<path class="st1" d="M1392.13,271.57h-19.89v18.45h22.17v5.54h-28.78v-51.18h27.64v5.54h-21.03v16.17h19.89V271.57z"/>
			<path class="st1" d="M1438.76,293.89c-2.43,1.21-7.29,2.43-13.51,2.43c-14.43,0-25.28-9.11-25.28-25.89
				c0-16.02,10.86-26.88,26.73-26.88c6.38,0,10.4,1.37,12.15,2.28l-1.59,5.39c-2.5-1.21-6.07-2.13-10.33-2.13
				c-12,0-19.97,7.67-19.97,21.11c0,12.53,7.21,20.58,19.67,20.58c4.02,0,8.13-0.83,10.78-2.13L1438.76,293.89z"/>
			<path class="st1" d="M1458.88,250.01h-15.57v-5.62h37.89v5.62h-15.64v45.56h-6.68V250.01z"/>
			<path class="st1" d="M1493.5,244.39v51.18h-6.61v-51.18L1493.5,244.39L1493.5,244.39z"/>
			<path class="st1" d="M1548.78,269.44c0,17.62-10.71,26.95-23.77,26.95c-13.51,0-23.01-10.48-23.01-25.97
				c0-16.25,10.1-26.88,23.77-26.88C1539.75,243.55,1548.78,254.26,1548.78,269.44z M1509.07,270.28c0,10.93,5.92,20.73,16.32,20.73
				c10.48,0,16.4-9.64,16.4-21.26c0-10.17-5.31-20.8-16.32-20.8C1514.54,248.94,1509.07,259.04,1509.07,270.28z"/>
			<path class="st1" d="M1557.37,295.56v-51.18h7.21l16.4,25.89c3.8,6,6.76,11.39,9.19,16.63l0.15-0.08
				c-0.61-6.83-0.76-13.06-0.76-21.03v-21.41h6.23v51.18h-6.68l-16.25-25.97c-3.57-5.69-6.99-11.54-9.57-17.08l-0.23,0.08
				c0.38,6.45,0.53,12.6,0.53,21.11v21.87h-6.22V295.56z"/>
			<path class="st1" d="M1606.42,287.52c2.96,1.82,7.29,3.34,11.84,3.34c6.76,0,10.71-3.57,10.71-8.73c0-4.78-2.73-7.52-9.64-10.17
				c-8.35-2.96-13.51-7.29-13.51-14.5c0-7.97,6.61-13.9,16.55-13.9c5.24,0,9.04,1.21,11.31,2.51l-1.82,5.39
				c-1.67-0.91-5.09-2.43-9.72-2.43c-6.99,0-9.64,4.18-9.64,7.67c0,4.78,3.11,7.14,10.17,9.87c8.66,3.34,13.06,7.52,13.06,15.03
				c0,7.9-5.85,14.73-17.92,14.73c-4.94,0-10.33-1.44-13.06-3.26L1606.42,287.52z"/>
		</g>
	</g>
</g>
<g id="Layer_2">
</g>
<g id="Layer_3">
</g>
</svg>
